<?xml version="1.0" standalone="yes"?>
<svg xmlns="http://www.w3.org/2000/svg" width="2398" height="2398">
<path style="fill:#010101; stroke:none;" d="M0 0L0 2398L2398 2398L2398 0L0 0z"/>
<path style="fill:#2c2c2c; stroke:none;" d="M371 17L386 17C381.619 13.0933 374.791 11.6829 371 17z"/>
<path style="fill:#5b5b5b; stroke:none;" d="M379 16L380 17L379 16M354 17L354 20L357 17L354 17z"/>
<path style="fill:#9a9a9a; stroke:none;" d="M357 17L357 20L338 23L339 27L332 27L332 31L326 30L325 31L326 34L322 34C318.526 40.7903 311.446 46.0425 306.119 51.4243C295.097 62.5583 283.955 73.571 272.881 84.6514C267.251 90.2849 260.84 99.7861 253 102L253 106L250 105L250 112C245.125 113.039 243.019 119.458 243 124L239 123C239.546 127.448 240.329 130.605 236 133L235 154C239.969 149.134 239.034 136.941 241.579 130.089C245.319 120.022 252.969 109.399 260.036 101.439C278.125 81.0654 298.909 58.9648 320.086 41.8289C326.27 36.8247 332.751 32.0933 339.715 28.2639C344.09 25.8579 348.343 25.5513 351 21C355.733 22.3955 360.065 22.6047 361 17L357 17z"/>
<path style="fill:#ffffff; stroke:none;" d="M361 17C359.422 22.1992 355.763 22.1172 351 21C343.623 29.6038 328.41 34.1609 319.17 41.8289C306.878 52.0283 296.08 64.5046 284.79 75.79C268.547 92.0264 252.031 107.294 241.968 128.285C237.521 137.563 234.343 153.814 235.054 164C235.59 171.677 238.907 176.989 237 185C240.78 188.357 241.159 191.09 241 196C245.877 198.674 246.22 204.165 249.008 208.58C252.652 214.348 258.768 219.803 263.289 225C280.959 245.307 301.471 264.365 320.985 282.91C404.217 362.007 484.067 445.14 565.011 526.576C589.679 551.394 614.591 575.989 639.424 600.651L657.21 618.424C659.13 620.342 662.563 622.921 661.669 626.039C660.569 629.88 655.717 633.283 653 636L631 658L549 740L341 948L283 1006C267.578 1021.42 251.416 1036.45 241.994 1056.41C237.489 1065.95 234.286 1082.48 235.055 1093C235.62 1100.74 238.511 1105.86 237 1114L249.494 1137.39L291.003 1181.99L330.614 1218.51L354 1231C363.363 1229.26 365.225 1233.26 373.129 1235.39C378.272 1236.78 384.609 1235.22 390 1236L390 1235L387 1234L387 1232L403 1231C411.015 1221.97 427.887 1217.93 437.711 1209.41C463.689 1186.88 486.908 1160.32 511.349 1136.12C628.329 1020.28 744.536 903.574 860.576 786.79C897.086 750.045 938.614 715.099 970.356 674.17C978.207 664.046 982.748 651.253 983.375 639C983.598 634.635 983.794 627.763 989 627L988 624C983.383 622.924 983.572 616.064 983.319 612C982.53 599.293 977.919 589.365 971.194 578C963.91 565.688 951.132 555.586 941 545.588C922.579 527.409 904.375 508.994 886.125 490.644C768.492 372.359 650.163 254.756 532.204 136.796C506.964 111.556 481.954 86.0598 456.412 61.125C447.784 52.7024 439.849 42.4961 430 35.4722C420.075 28.3936 409.892 25.6104 399.065 21.5229C396.59 20.5886 395.456 17.8486 392.847 17.2222C388.457 16.168 383.414 18.7239 379 18.9351C372.981 19.2229 367.072 17.0208 361 17z"/>
<path style="fill:#9a9a9a; stroke:none;" d="M368 17L368 18L388 18L368 17M395 17C396.874 22.8865 407.361 23.9116 412.94 26.2129C424.469 30.9685 433.788 39.2888 442.588 47.875C485.096 89.3525 526.226 132.246 568.588 173.875C656.106 259.879 742.637 347.068 828.875 434.356C859.847 465.705 891.417 496.464 922.412 527.796C937.153 542.698 954.036 556.72 967.185 573.06C973.997 581.525 980.496 593.931 983.468 604.134C985.858 612.342 982.236 618.487 988 626L989 626L989 613C984.567 610.288 982.019 594.449 982 589L978 588L979 582L975 583L975 576L958 561L958 557L952 550L949 551L945 544L941 544L941 540L935 533L932 534L928 527L924 527L924 523L918 516L915 517L911 510L907 510L907 506L901 499L898 500L894 493L890 493L890 489L884 482L880 483L880 479L877 476L873 476L873 472L867 465L863 466L863 462L860 459L856 459L856 455L850 448L846 449L846 445L843 442L839 442L839 438L833 431L829 432L829 428L826 425L822 425L822 421L816 418L816 414L812 414L809 411L810 408L805 408L805 403L802 404L799 401L799 397L795 397L792 394L793 391L788 391L788 386L785 387L782 384L782 380L778 380L775 377L776 374L771 374L771 369L768 370L765 367L765 363L761 363L758 360L759 357L754 357L754 352L751 353L744 347L744 343L727 330L727 326L717 316L713 316L714 312L710 313L710 309L700 299L696 299L697 295L693 296L693 292L683 282L679 282L680 278L676 279L676 275L666 265L662 265L663 261L659 262L659 258L649 248L645 248L646 244L642 245L642 241L632 231L628 231L629 227L625 228L625 224L615 214L611 214L612 210L608 211L608 207L598 197L594 197L595 193L591 194L591 190L581 180L577 180L578 176L574 177L574 173L564 163L560 163L561 159L557 160L557 156L543 146L544 142L540 143C538.468 137.594 531.407 130.532 526 129L527 125L523 126C520.458 117.031 507.017 107.761 500.369 101.315C484.287 85.7205 468.736 69.5408 452.914 53.686C447.148 47.9072 432.07 38.2156 431 30L424 30L424 27L418 27L419 23C415.359 23.7542 413.051 23.8867 412 20L400 20L400 17L395 17z"/>
<path style="fill:#5b5b5b; stroke:none;" d="M400 17L403 20L400 17z"/>
<path style="fill:#2c2c2c; stroke:none;" d="M402 17L404 20L402 17M352 20L355 18L352 20z"/>
<path style="fill:#5b5b5b; stroke:none;" d="M343 20L342 24L347 20L343 20z"/>
<path style="fill:#2c2c2c; stroke:none;" d="M344 20L345 21L344 20M412 20L413 21L412 20M342 21L343 22L342 21z"/>
<path style="fill:#5b5b5b; stroke:none;" d="M411 21L417 24L417 23L411 21M339 23L340 24L339 23z"/>
<path style="fill:#2c2c2c; stroke:none;" d="M417 23L418 24L417 23M335 26L338 25L335 26z"/>
<path style="fill:#5b5b5b; stroke:none;" d="M338 24L335 26L335 27C337.348 26.7058 338.951 26.5063 338 24M421 27L421 24C418.392 25.1194 417.932 26.3416 421 27z"/>
<path style="fill:#2c2c2c; stroke:none;" d="M420 25L421 26L420 25M331 27L329 30L331 27z"/>
<path style="fill:#5b5b5b; stroke:none;" d="M424 27L427 30L426 27L424 27M331 28L328 30L328 31C330.348 30.7058 331.951 30.5068 331 28z"/>
<path style="fill:#2c2c2c; stroke:none;" d="M427 29L428 30L427 29z"/>
<path style="fill:#5b5b5b; stroke:none;" d="M430 31L431 32L430 31M324.667 33.3333L325.333 33.6667L324.667 33.3333M321 34L321 37L322 37L321 34M433 34L452.914 54.4243L502.59 103.97L526 126C522.396 115.635 507.914 105.829 500.181 98.054C478.591 76.3501 457.731 52.063 433 34z"/>
<path style="fill:#2c2c2c; stroke:none;" d="M434 34L435 35L434 34M435.333 35.6667L435.667 36.3333L435.333 35.6667M318 37L319 38L318 37z"/>
<path style="fill:#5b5b5b; stroke:none;" d="M319 37L320 38L319 37z"/>
<path style="fill:#2c2c2c; stroke:none;" d="M438 37L438 39L440 39L438 37z"/>
<path style="fill:#5b5b5b; stroke:none;" d="M318 38L319 39L318 38z"/>
<path style="fill:#2c2c2c; stroke:none;" d="M440 39L441 40L440 39M315.667 40.3333L316.333 40.6667L315.667 40.3333z"/>
<path style="fill:#5b5b5b; stroke:none;" d="M317 40L318 41L317 40M314 41L307 51L308 51L316 41L314 41z"/>
<path style="fill:#2c2c2c; stroke:none;" d="M313 42L312 44L314 44L313 42z"/>
<path style="fill:#9a9a9a; stroke:none;" d="M444 42L445 43L444 42z"/>
<path style="fill:#2c2c2c; stroke:none;" d="M310 45L309 47L311 47L310 45M447 45L448 46L447 45M308 47L309 48L308 47M307 48L308 49L307 48M450 48L451 49L450 48M306.333 49.6667L306.667 50.3333L306.333 49.6667z"/>
<path style="fill:#5b5b5b; stroke:none;" d="M304 51L301 56L306 51L304 51z"/>
<path style="fill:#2c2c2c; stroke:none;" d="M303 52L302 54L304 54L303 52M454 52L455 53L454 52M457 55L458 56L457 55M298 58L301 57L298 58z"/>
<path style="fill:#5b5b5b; stroke:none;" d="M299.667 57.3333L300.333 57.6667L299.667 57.3333z"/>
<path style="fill:#2c2c2c; stroke:none;" d="M458 57L459 58L458 57z"/>
<path style="fill:#5b5b5b; stroke:none;" d="M297 58L290 68L291 68L299 58L297 58z"/>
<path style="fill:#2c2c2c; stroke:none;" d="M460 58L461 59L460 58M296 59L295 61L297 61L296 59M293 62L292 64L294 64L293 62M464 62L465 63L464 62M291 64L292 65L291 64M290 65L291 66L290 65M467 65L468 66L467 65M289.333 66.6667L289.667 67.3333L289.333 66.6667z"/>
<path style="fill:#5b5b5b; stroke:none;" d="M287 68L284 73L289 68L287 68z"/>
<path style="fill:#2c2c2c; stroke:none;" d="M286 69L285 71L287 71L286 69M471 69L472 70L471 69M474 72L475 73L474 72M281 75L284 73L281 75z"/>
<path style="fill:#5b5b5b; stroke:none;" d="M283 74L284 75L283 74z"/>
<path style="fill:#2c2c2c; stroke:none;" d="M475 74L476 75L475 74z"/>
<path style="fill:#5b5b5b; stroke:none;" d="M280 75L273 85L274 85L282 75L280 75z"/>
<path style="fill:#2c2c2c; stroke:none;" d="M477 75L478 76L477 75M279 76L278 78L280 78L279 76M276 79L275 81L277 81L276 79M481 79L482 80L481 79M274 81L275 82L274 81M273 82L274 83L273 82M484 82L485 83L484 82M272.333 83.6667L272.667 84.3333L272.333 83.6667z"/>
<path style="fill:#5b5b5b; stroke:none;" d="M270 85L267 90L272 85L270 85z"/>
<path style="fill:#2c2c2c; stroke:none;" d="M269 86L268 88L270 88L269 86M491 89L492 90L491 89M264 92L267 90L264 92z"/>
<path style="fill:#5b5b5b; stroke:none;" d="M266 91L267 92L266 91z"/>
<path style="fill:#2c2c2c; stroke:none;" d="M492 91L493 92L492 91z"/>
<path style="fill:#5b5b5b; stroke:none;" d="M263 92L256 102L257 102L265 92L263 92z"/>
<path style="fill:#2c2c2c; stroke:none;" d="M494 92L495 93L494 92M262 93L261 95L263 95L262 93M498 96L499 97L498 96M258.667 97.3333L259.333 97.6667L258.667 97.3333M257 98L258 99L257 98M256 99L257 100L256 99M501 99L502 100L501 99z"/>
<path style="fill:#5b5b5b; stroke:none;" d="M251.667 105.333L252.333 105.667L251.667 105.333z"/>
<path style="fill:#2c2c2c; stroke:none;" d="M508 106L509 107L508 106M509 108L510 109L509 108z"/>
<path style="fill:#5b5b5b; stroke:none;" d="M247 109L243 118L250 109L247 109z"/>
<path style="fill:#2c2c2c; stroke:none;" d="M511 109L512 110L511 109z"/>
<path style="fill:#9a9a9a; stroke:none;" d="M246 110L247 111L246 110z"/>
<path style="fill:#2c2c2c; stroke:none;" d="M515 113L516 114L515 113M244.667 115.333L245.333 115.667L244.667 115.333M518 116L519 117L518 116M242 120L241 122L243 122L242 120z"/>
<path style="fill:#5b5b5b; stroke:none;" d="M240 122L240 124L243 124L243 122L240 122z"/>
<path style="fill:#2c2c2c; stroke:none;" d="M525 123L526 124L525 123z"/>
<path style="fill:#5b5b5b; stroke:none;" d="M239 126L236 133C239.596 131.807 240.417 129.499 239 126M526 126C527.836 131.338 537.662 141.164 543 143C540.761 136.56 532.437 128.252 526 126z"/>
<path style="fill:#2c2c2c; stroke:none;" d="M528 126L529 127L528 126M237.667 129.333L238.333 129.667L237.667 129.333M236 130L237 131L236 130M532 130L533 131L532 130M535 133L536 134L535 133M235.333 139.667L235.667 140.333L235.333 139.667M542 140L543 141L542 140z"/>
<path style="fill:#5b5b5b; stroke:none;" d="M235 141L235 145L236 145L235 141M543 143C544.769 148.143 551.771 154.487 557 156C554.28 150.903 548.532 144.936 543 143z"/>
<path style="fill:#2c2c2c; stroke:none;" d="M545 143L546 144L545 143M549 147L550 148L549 147M552 150L553 151L552 150z"/>
<path style="fill:#5b5b5b; stroke:none;" d="M557 156L560 160L557 156z"/>
<path style="fill:#2c2c2c; stroke:none;" d="M559 157L560 158L559 157z"/>
<path style="fill:#5b5b5b; stroke:none;" d="M560 160L564 163L560 160z"/>
<path style="fill:#2c2c2c; stroke:none;" d="M562 160L563 161L562 160z"/>
<path style="fill:#5b5b5b; stroke:none;" d="M564 163C565.418 167.903 569.097 171.582 574 173L564 163z"/>
<path style="fill:#2c2c2c; stroke:none;" d="M566 164L567 165L566 164M569 167L570 168L569 167z"/>
<path style="fill:#9a9a9a; stroke:none;" d="M235 168L236.584 187.83L246 211L260 225L260 229L263 232C266.762 232.457 269.509 235.23 270 239C273.907 240.107 275.893 242.093 277 246L280 249C283.762 249.457 286.509 252.23 287 256C290.907 257.107 292.893 259.093 294 263L297 266C300.762 266.457 303.509 269.23 304 273C307.907 274.107 309.893 276.093 311 280L314 283C317.994 283.485 319.95 286.285 321 290C324.908 291.107 326.893 293.093 328 297L331 300C334.994 300.485 336.95 303.285 338 307C341.907 308.107 343.893 310.093 345 314L348 317C351.762 317.457 354.509 320.23 355 324C358.908 325.107 360.893 327.093 362 331L365 334C368.762 334.457 371.509 337.23 372 341C375.907 342.107 377.893 344.093 379 348L382 351C385.969 351.482 388.15 354.227 389 358C392.907 359.107 394.893 361.093 396 365L399 364L400 365L399 368C402.969 368.482 405.15 371.227 406 375C409.907 376.107 411.893 378.093 413 382L416 381L417 382L416 385C419.969 385.482 422.15 388.227 423 392C426.907 393.107 428.893 395.093 430 399L433 398L434 399L433 402L437 406L440 405L441 406L440 409C443.907 410.107 445.893 412.093 447 416L450 415L451 416L450 419L454 423L457 422L458 423L457 426C460.907 427.107 462.893 429.093 464 433L467 432L467 435L471 436L471 440L475 440L474 443C477.907 444.107 479.893 446.093 481 450L484 449L484 452L488 453L488 457L492 457L491 460C494.907 461.107 496.893 463.093 498 467L501 466L501 469L505 470L505 474L509 474L508 477C511.907 478.107 513.893 480.093 515 484L518 483L518 486L522 487L522 491L526 491L525 494C528.907 495.107 530.893 497.093 532 501L535 500L535 503L539 504L539 508L543 508L542 511C545.907 512.107 547.893 514.093 549 518L553 518L556 521L556 525L560 525L559 528C562.907 529.107 564.893 531.092 566 535L570 535L573 538L573 542L577 542L576 545C579.907 546.107 581.893 548.093 583 552L587 552L590 555L590 559L594 559L593 562C596.907 563.107 598.893 565.093 600 569L604 569L607 572L607 576L611 576L610 579C613.907 580.107 615.893 582.093 617 586L621 586L624 589L624 593L628 593L627 596C630.907 597.107 632.893 599.093 634 603L638 603L641 606L641 610L645 610L644 613C647.907 614.107 649.893 616.093 651 620L655 620L660 626C626.955 653.516 597.708 687.863 567.349 718.349C498.734 787.251 430.436 856.567 361 924.651C335.01 950.135 309.873 976.494 283.79 1001.88C275.82 1009.64 263.942 1027.53 253 1030L253 1035L250 1034C249.645 1038.8 247.164 1043.51 243 1046L243 1052L239 1053C239.6 1056.9 239.59 1059 236 1061L235 1083L236 1083C238.426 1077.96 237.111 1073.31 238.299 1068.09C240.092 1060.21 244.581 1051.15 248.931 1044.27C259.746 1027.17 276.786 1013.21 291 999L366 924L549 741L629 661C638.399 651.601 656.675 639.249 661.914 627.015C664.767 620.355 645.486 605.872 641 601.424C616.401 577.035 591.941 552.507 567.349 528.116C485.584 447.019 405.834 363.729 322.91 283.826C302.845 264.493 281.578 245.018 263.289 224C258.808 218.849 252.608 213.434 249.008 207.729C246.364 203.538 246.181 197.712 241 196C241.522 191.03 241.587 187.749 237 185C238.629 179.488 238.93 172.519 235 168z"/>
<path style="fill:#5b5b5b; stroke:none;" d="M574 173L577 177L574 173z"/>
<path style="fill:#2c2c2c; stroke:none;" d="M576 174L577 175L576 174z"/>
<path style="fill:#5b5b5b; stroke:none;" d="M577 177L581 180L577 177z"/>
<path style="fill:#2c2c2c; stroke:none;" d="M579 177L580 178L579 177z"/>
<path style="fill:#5b5b5b; stroke:none;" d="M235 178L235 182L236 182L235 178M581 180C582.418 184.903 586.097 188.582 591 190L583 180L581 180z"/>
<path style="fill:#2c2c2c; stroke:none;" d="M235.333 182.667L235.667 183.333L235.333 182.667M586 184L587 185L586 184z"/>
<path style="fill:#5b5b5b; stroke:none;" d="M236 189L239 199L240 199C239.984 194.513 240.056 191.488 236 189M591 190L594 194L591 190z"/>
<path style="fill:#2c2c2c; stroke:none;" d="M593 191L594 192L593 191M236 192L239 195L236 192z"/>
<path style="fill:#5b5b5b; stroke:none;" d="M594 194L598 197L594 194z"/>
<path style="fill:#2c2c2c; stroke:none;" d="M596 194L597 195L596 194z"/>
<path style="fill:#5b5b5b; stroke:none;" d="M598 197C599.418 201.903 603.097 205.582 608 207L600 197L598 197M240 199L243 201L240 199z"/>
<path style="fill:#2c2c2c; stroke:none;" d="M241.667 201.333L242.333 201.667L241.667 201.333M603 201L604 202L603 201z"/>
<path style="fill:#5b5b5b; stroke:none;" d="M243 204L246 208L243 204z"/>
<path style="fill:#2c2c2c; stroke:none;" d="M243 206L244 207L243 206z"/>
<path style="fill:#5b5b5b; stroke:none;" d="M608 207L611 211L608 207z"/>
<path style="fill:#2c2c2c; stroke:none;" d="M610 208L611 209L610 208M246 211L250 215L246 211z"/>
<path style="fill:#5b5b5b; stroke:none;" d="M247 211L247 212L250 212L247 211M611 211L615 214L611 211z"/>
<path style="fill:#2c2c2c; stroke:none;" d="M613 211L614 212L613 211z"/>
<path style="fill:#5b5b5b; stroke:none;" d="M250 213L253 218L250 213M615 214C616.418 218.903 620.097 222.582 625 224L617 214L615 214z"/>
<path style="fill:#2c2c2c; stroke:none;" d="M250 216L251 217L250 216M620 218L621 219L620 218z"/>
<path style="fill:#5b5b5b; stroke:none;" d="M253 219L256 222L253 219M625 224L628 228L625 224z"/>
<path style="fill:#2c2c2c; stroke:none;" d="M259 225L260 226L259 225M627 225L628 226L627 225z"/>
<path style="fill:#5b5b5b; stroke:none;" d="M261 228L262 229L261 228M628 228L632 231L628 228z"/>
<path style="fill:#2c2c2c; stroke:none;" d="M630 228L631 229L630 228z"/>
<path style="fill:#5b5b5b; stroke:none;" d="M263.333 229.667L263.667 230.333L263.333 229.667M264 231L265 232L264 231M632 231C633.418 235.903 637.097 239.582 642 241L634 231L632 231M267 234L268 235L267 234M268.667 235.333L269.333 235.667L268.667 235.333z"/>
<path style="fill:#2c2c2c; stroke:none;" d="M637 235L638 236L637 235z"/>
<path style="fill:#5b5b5b; stroke:none;" d="M270 237L271 238L270 237z"/>
<path style="fill:#2c2c2c; stroke:none;" d="M273.333 239.667L273.667 240.333L273.333 239.667z"/>
<path style="fill:#5b5b5b; stroke:none;" d="M274 241L275 242L274 241M642 241L645 245L642 241z"/>
<path style="fill:#2c2c2c; stroke:none;" d="M276 242L277 243L276 242M644 242L645 243L644 242z"/>
<path style="fill:#5b5b5b; stroke:none;" d="M278 245L279 246L278 245M645 245L649 248L645 245z"/>
<path style="fill:#2c2c2c; stroke:none;" d="M647 245L648 246L647 245z"/>
<path style="fill:#5b5b5b; stroke:none;" d="M280.333 246.667L280.667 247.333L280.333 246.667M281 248L282 249L281 248M649 248C650.418 252.903 654.097 256.582 659 258L651 248L649 248M284 251L285 252L284 251M285.667 252.333L286.333 252.667L285.667 252.333z"/>
<path style="fill:#2c2c2c; stroke:none;" d="M654 252L655 253L654 252z"/>
<path style="fill:#5b5b5b; stroke:none;" d="M287 254L288 255L287 254z"/>
<path style="fill:#2c2c2c; stroke:none;" d="M290.333 256.667L290.667 257.333L290.333 256.667z"/>
<path style="fill:#5b5b5b; stroke:none;" d="M291 258L292 259L291 258M659 258L662 262L659 258z"/>
<path style="fill:#2c2c2c; stroke:none;" d="M293 259L294 260L293 259M661 259L662 260L661 259z"/>
<path style="fill:#5b5b5b; stroke:none;" d="M295 262L296 263L295 262M662 262L666 265L662 262z"/>
<path style="fill:#2c2c2c; stroke:none;" d="M664 262L665 263L664 262z"/>
<path style="fill:#5b5b5b; stroke:none;" d="M297.333 263.667L297.667 264.333L297.333 263.667M298 265L299 266L298 265M666 265C667.418 269.903 671.097 273.582 676 275L668 265L666 265M301 268L302 269L301 268M302.667 269.333L303.333 269.667L302.667 269.333z"/>
<path style="fill:#2c2c2c; stroke:none;" d="M671 269L672 270L671 269z"/>
<path style="fill:#5b5b5b; stroke:none;" d="M304 271L305 272L304 271z"/>
<path style="fill:#2c2c2c; stroke:none;" d="M674 272L675 273L674 272M307.333 273.667L307.667 274.333L307.333 273.667z"/>
<path style="fill:#5b5b5b; stroke:none;" d="M308 275L309 276L308 275M676 275L679 279L676 275z"/>
<path style="fill:#2c2c2c; stroke:none;" d="M310 276L311 277L310 276M678 276L679 277L678 276z"/>
<path style="fill:#5b5b5b; stroke:none;" d="M312 279L313 280L312 279M679 279L683 282L679 279z"/>
<path style="fill:#2c2c2c; stroke:none;" d="M681 279L682 280L681 279z"/>
<path style="fill:#5b5b5b; stroke:none;" d="M314.333 280.667L314.667 281.333L314.333 280.667M315 282L316 283L315 282M683 282C684.37 286.994 688.006 290.63 693 292L685 282L683 282M318 285L319 286L318 285M319.667 286.333L320.333 286.667L319.667 286.333z"/>
<path style="fill:#2c2c2c; stroke:none;" d="M688 286L689 287L688 286M691 289L692 290L691 289M324.333 290.667L324.667 291.333L324.333 290.667z"/>
<path style="fill:#5b5b5b; stroke:none;" d="M325 292L326 293L325 292M693 292L696 296L693 292z"/>
<path style="fill:#2c2c2c; stroke:none;" d="M326.667 293.333L327.333 293.667L326.667 293.333M695 293L696 294L695 293z"/>
<path style="fill:#5b5b5b; stroke:none;" d="M329 296L330 297L329 296M696 296L700 299L696 296z"/>
<path style="fill:#2c2c2c; stroke:none;" d="M698 296L699 297L698 296z"/>
<path style="fill:#5b5b5b; stroke:none;" d="M331.333 297.667L331.667 298.333L331.333 297.667M332 299L333 300L332 299M700 299C701.37 303.994 705.006 307.63 710 309L702 299L700 299M335 302L336 303L335 302M336.667 303.333L337.333 303.667L336.667 303.333z"/>
<path style="fill:#2c2c2c; stroke:none;" d="M705 303L706 304L705 303M708 306L709 307L708 306M341.333 307.667L341.667 308.333L341.333 307.667z"/>
<path style="fill:#5b5b5b; stroke:none;" d="M342 309L343 310L342 309M710 309L713 313L710 309z"/>
<path style="fill:#2c2c2c; stroke:none;" d="M343.667 310.333L344.333 310.667L343.667 310.333M712 310L713 311L712 310z"/>
<path style="fill:#5b5b5b; stroke:none;" d="M346 313L347 314L346 313M713 313L717 316L713 313z"/>
<path style="fill:#2c2c2c; stroke:none;" d="M715 313L716 314L715 313z"/>
<path style="fill:#5b5b5b; stroke:none;" d="M348.333 314.667L348.667 315.333L348.333 314.667M349 316L350 317L349 316M717 316C718.37 320.994 722.006 324.63 727 326L719 316L717 316M352 319L353 320L352 319M353.667 320.333L354.333 320.667L353.667 320.333z"/>
<path style="fill:#2c2c2c; stroke:none;" d="M722 320L723 321L722 320z"/>
<path style="fill:#5b5b5b; stroke:none;" d="M355 322L356 323L355 322z"/>
<path style="fill:#2c2c2c; stroke:none;" d="M725 323L726 324L725 323M358.333 324.667L358.667 325.333L358.333 324.667z"/>
<path style="fill:#5b5b5b; stroke:none;" d="M359 326L360 327L359 326M727 326L727 330L734 333L727 326z"/>
<path style="fill:#2c2c2c; stroke:none;" d="M360.667 327.333L361.333 327.667L360.667 327.333M729 327L730 328L729 327M730 329L731 330L730 329z"/>
<path style="fill:#5b5b5b; stroke:none;" d="M363 330L364 331L363 330z"/>
<path style="fill:#2c2c2c; stroke:none;" d="M732 330L733 331L732 330z"/>
<path style="fill:#5b5b5b; stroke:none;" d="M365.333 331.667L365.667 332.333L365.333 331.667M366 333L367 334L366 333M734 333C735.37 337.994 739.006 341.63 744 343L736 333L734 333M369 336L370 337L369 336M370.667 337.333L371.333 337.667L370.667 337.333z"/>
<path style="fill:#2c2c2c; stroke:none;" d="M739 337L740 338L739 337z"/>
<path style="fill:#5b5b5b; stroke:none;" d="M372 339L373 340L372 339z"/>
<path style="fill:#2c2c2c; stroke:none;" d="M742 340L743 341L742 340M375.333 341.667L375.667 342.333L375.333 341.667z"/>
<path style="fill:#5b5b5b; stroke:none;" d="M376 343L377 344L376 343M744 343L744 347L751 350L744 343z"/>
<path style="fill:#2c2c2c; stroke:none;" d="M377.667 344.333L378.333 344.667L377.667 344.333M746 344L747 345L746 344M747 346L748 347L747 346z"/>
<path style="fill:#5b5b5b; stroke:none;" d="M380 347L381 348L380 347z"/>
<path style="fill:#2c2c2c; stroke:none;" d="M749 347L750 348L749 347z"/>
<path style="fill:#5b5b5b; stroke:none;" d="M382.333 348.667L382.667 349.333L382.333 348.667M383 350L384 351L383 350M751 350L751 353L754 352L754 351L751 350M386 353L387 354L386 353M754 353L754 357L758 357L754 353z"/>
<path style="fill:#9a9a9a; stroke:none;" d="M755 353L756 354L755 353z"/>
<path style="fill:#5b5b5b; stroke:none;" d="M387.667 354.333L388.333 354.667L387.667 354.333z"/>
<path style="fill:#2c2c2c; stroke:none;" d="M756 354L757 355L756 354z"/>
<path style="fill:#5b5b5b; stroke:none;" d="M389.333 355.667L389.667 356.333L389.333 355.667z"/>
<path style="fill:#9a9a9a; stroke:none;" d="M757 355L758 356L757 355z"/>
<path style="fill:#2c2c2c; stroke:none;" d="M759 357L760 358L759 357M392.333 358.667L392.667 359.333L392.333 358.667z"/>
<path style="fill:#5b5b5b; stroke:none;" d="M758 358L758 360L761 360L761 358L758 358M393 360L394 361L393 360M761 360L764 363L761 360z"/>
<path style="fill:#2c2c2c; stroke:none;" d="M394.667 361.333L395.333 361.667L394.667 361.333M763 361L764 362L763 361z"/>
<path style="fill:#5b5b5b; stroke:none;" d="M397.667 364.333L398.333 364.667L397.667 364.333M765 364L768 367L765 364z"/>
<path style="fill:#2c2c2c; stroke:none;" d="M766 364L767 365L766 364z"/>
<path style="fill:#5b5b5b; stroke:none;" d="M399.333 365.667L399.667 366.333L399.333 365.667M400 367L401 368L400 367M768 367L768 370L771 369L771 368L768 367M403 370L404 371L403 370M771 370L771 374L775 374L771 370z"/>
<path style="fill:#9a9a9a; stroke:none;" d="M772 370L773 371L772 370z"/>
<path style="fill:#5b5b5b; stroke:none;" d="M404.667 371.333L405.333 371.667L404.667 371.333z"/>
<path style="fill:#2c2c2c; stroke:none;" d="M773 371L774 372L773 371z"/>
<path style="fill:#5b5b5b; stroke:none;" d="M406.333 372.667L406.667 373.333L406.333 372.667z"/>
<path style="fill:#9a9a9a; stroke:none;" d="M774 372L775 373L774 372z"/>
<path style="fill:#2c2c2c; stroke:none;" d="M776 374L777 375L776 374M409.333 375.667L409.667 376.333L409.333 375.667z"/>
<path style="fill:#5b5b5b; stroke:none;" d="M775 375L775 377L778 377L778 375L775 375M410 377L411 378L410 377M778 377L781 380L778 377z"/>
<path style="fill:#2c2c2c; stroke:none;" d="M411.667 378.333L412.333 378.667L411.667 378.333M780 378L781 379L780 378z"/>
<path style="fill:#5b5b5b; stroke:none;" d="M414.667 381.333L415.333 381.667L414.667 381.333M782 381L785 384L782 381z"/>
<path style="fill:#2c2c2c; stroke:none;" d="M783 381L784 382L783 381z"/>
<path style="fill:#5b5b5b; stroke:none;" d="M416.333 382.667L416.667 383.333L416.333 382.667M417 384L418 385L417 384M785 384C785.513 386.475 785.604 386.575 788 386L785 384z"/>
<path style="fill:#2c2c2c; stroke:none;" d="M786 384L787 385L786 384z"/>
<path style="fill:#5b5b5b; stroke:none;" d="M420 387L421 388L420 387M788 387L788 391L792 391L788 387z"/>
<path style="fill:#9a9a9a; stroke:none;" d="M789 387L790 388L789 387z"/>
<path style="fill:#5b5b5b; stroke:none;" d="M421.667 388.333L422.333 388.667L421.667 388.333z"/>
<path style="fill:#2c2c2c; stroke:none;" d="M790 388L791 389L790 388z"/>
<path style="fill:#5b5b5b; stroke:none;" d="M423.333 389.667L423.667 390.333L423.333 389.667z"/>
<path style="fill:#9a9a9a; stroke:none;" d="M791 389L792 390L791 389z"/>
<path style="fill:#2c2c2c; stroke:none;" d="M793 391L794 392L793 391M426.333 392.667L426.667 393.333L426.333 392.667z"/>
<path style="fill:#5b5b5b; stroke:none;" d="M792 392L792 394L795 394L795 392L792 392M427 394L428 395L427 394M795 394L798 397L795 394z"/>
<path style="fill:#2c2c2c; stroke:none;" d="M428.667 395.333L429.333 395.667L428.667 395.333M797 395L798 396L797 395z"/>
<path style="fill:#5b5b5b; stroke:none;" d="M431.667 398.333L432.333 398.667L431.667 398.333M799 398L802 401L799 398z"/>
<path style="fill:#2c2c2c; stroke:none;" d="M800 398L801 399L800 398z"/>
<path style="fill:#5b5b5b; stroke:none;" d="M433.333 399.667L433.667 400.333L433.333 399.667M434 401L435 402L434 401M802 401C802.513 403.475 802.604 403.575 805 403L802 401z"/>
<path style="fill:#2c2c2c; stroke:none;" d="M803 401L804 402L803 401z"/>
<path style="fill:#5b5b5b; stroke:none;" d="M437 404L438 405L437 404M805 404L805 408L809 408L805 404z"/>
<path style="fill:#9a9a9a; stroke:none;" d="M806 404L807 405L806 404z"/>
<path style="fill:#5b5b5b; stroke:none;" d="M438.667 405.333L439.333 405.667L438.667 405.333z"/>
<path style="fill:#2c2c2c; stroke:none;" d="M807 405L808 406L807 405z"/>
<path style="fill:#5b5b5b; stroke:none;" d="M440.333 406.667L440.667 407.333L440.333 406.667z"/>
<path style="fill:#9a9a9a; stroke:none;" d="M808 406L809 407L808 406z"/>
<path style="fill:#2c2c2c; stroke:none;" d="M810 408L811 409L810 408M443.333 409.667L443.667 410.333L443.333 409.667z"/>
<path style="fill:#5b5b5b; stroke:none;" d="M809 409L809 411L812 411L812 409L809 409M444 411L445 412L444 411M812 411L815 414L812 411z"/>
<path style="fill:#2c2c2c; stroke:none;" d="M445.667 412.333L446.333 412.667L445.667 412.333M814 412L815 413L814 412z"/>
<path style="fill:#5b5b5b; stroke:none;" d="M448.667 415.333L449.333 415.667L448.667 415.333M816 415L819 418L816 415z"/>
<path style="fill:#2c2c2c; stroke:none;" d="M817 415L818 416L817 415z"/>
<path style="fill:#5b5b5b; stroke:none;" d="M450.333 416.667L450.667 417.333L450.333 416.667M451 418L452 419L451 418M819 418L822 421L819 418z"/>
<path style="fill:#2c2c2c; stroke:none;" d="M820 418L821 419L820 418z"/>
<path style="fill:#5b5b5b; stroke:none;" d="M454 421L455 422L454 421z"/>
<path style="fill:#2c2c2c; stroke:none;" d="M822 421L823 422L822 421z"/>
<path style="fill:#9a9a9a; stroke:none;" d="M823 421L824 422L823 421z"/>
<path style="fill:#5b5b5b; stroke:none;" d="M455.667 422.333L456.333 422.667L455.667 422.333M822 422L826 425L822 422z"/>
<path style="fill:#2c2c2c; stroke:none;" d="M824 422L825 423L824 422z"/>
<path style="fill:#5b5b5b; stroke:none;" d="M457.333 423.667L457.667 424.333L457.333 423.667z"/>
<path style="fill:#9a9a9a; stroke:none;" d="M825 423L826 424L825 423z"/>
<path style="fill:#5b5b5b; stroke:none;" d="M826 425L829 428L826 425z"/>
<path style="fill:#2c2c2c; stroke:none;" d="M827 425L828 426L827 425M460.333 426.667L460.667 427.333L460.333 426.667z"/>
<path style="fill:#5b5b5b; stroke:none;" d="M461 428L462 429L461 428M829 428L829 432L832 432L829 428z"/>
<path style="fill:#2c2c2c; stroke:none;" d="M462.667 429.333L463.333 429.667L462.667 429.333M831 429L832 430L831 429z"/>
<path style="fill:#5b5b5b; stroke:none;" d="M465.667 432.333L466.333 432.667L465.667 432.333M832 432L836 435L832 432z"/>
<path style="fill:#2c2c2c; stroke:none;" d="M834 432L835 433L834 432z"/>
<path style="fill:#5b5b5b; stroke:none;" d="M467 433L468 434L467 433M836 435L839 438L836 435z"/>
<path style="fill:#2c2c2c; stroke:none;" d="M837 435L838 436L837 435M839 438L840 439L839 438z"/>
<path style="fill:#9a9a9a; stroke:none;" d="M840 438L841 439L840 438z"/>
<path style="fill:#5b5b5b; stroke:none;" d="M472 439L473 440L472 439M839 439L843 442L839 439z"/>
<path style="fill:#2c2c2c; stroke:none;" d="M841 439L842 440L841 439z"/>
<path style="fill:#5b5b5b; stroke:none;" d="M474.333 440.667L474.667 441.333L474.333 440.667M843 442L846 445L843 442z"/>
<path style="fill:#2c2c2c; stroke:none;" d="M844 442L845 443L844 442z"/>
<path style="fill:#5b5b5b; stroke:none;" d="M477 443L478 444L477 443z"/>
<path style="fill:#2c2c2c; stroke:none;" d="M477 444L478 445L477 444z"/>
<path style="fill:#5b5b5b; stroke:none;" d="M478 445L479 446L478 445M846 445L846 449L849 449L846 445z"/>
<path style="fill:#2c2c2c; stroke:none;" d="M479 446L480 447L479 446z"/>
<path style="fill:#5b5b5b; stroke:none;" d="M480 446L481 447L480 446z"/>
<path style="fill:#2c2c2c; stroke:none;" d="M848 446L849 447L848 446z"/>
<path style="fill:#5b5b5b; stroke:none;" d="M482.667 449.333L483.333 449.667L482.667 449.333M849 449L853 452L849 449z"/>
<path style="fill:#2c2c2c; stroke:none;" d="M851 449L852 450L851 449z"/>
<path style="fill:#5b5b5b; stroke:none;" d="M484 450L485 451L484 450M853 452L856 455L853 452z"/>
<path style="fill:#2c2c2c; stroke:none;" d="M854 452L855 453L854 452M856 455L857 456L856 455z"/>
<path style="fill:#9a9a9a; stroke:none;" d="M857 455L858 456L857 455z"/>
<path style="fill:#5b5b5b; stroke:none;" d="M489 456L490 457L489 456M856 456L860 459L856 456z"/>
<path style="fill:#2c2c2c; stroke:none;" d="M858 456L859 457L858 456z"/>
<path style="fill:#5b5b5b; stroke:none;" d="M491.333 457.667L491.667 458.333L491.333 457.667M860 459L863 462L860 459z"/>
<path style="fill:#2c2c2c; stroke:none;" d="M861 459L862 460L861 459z"/>
<path style="fill:#5b5b5b; stroke:none;" d="M494 460L495 461L494 460z"/>
<path style="fill:#2c2c2c; stroke:none;" d="M494 461L495 462L494 461z"/>
<path style="fill:#5b5b5b; stroke:none;" d="M495 462L496 463L495 462M863 462L863 466L866 466L863 462z"/>
<path style="fill:#2c2c2c; stroke:none;" d="M496 463L497 464L496 463z"/>
<path style="fill:#5b5b5b; stroke:none;" d="M497 463L498 464L497 463z"/>
<path style="fill:#2c2c2c; stroke:none;" d="M865 463L866 464L865 463z"/>
<path style="fill:#5b5b5b; stroke:none;" d="M499.667 466.333L500.333 466.667L499.667 466.333M866 466L870 469L866 466z"/>
<path style="fill:#2c2c2c; stroke:none;" d="M868 466L869 467L868 466z"/>
<path style="fill:#5b5b5b; stroke:none;" d="M501 467L502 468L501 467M870 469L873 472L870 469z"/>
<path style="fill:#2c2c2c; stroke:none;" d="M871 469L872 470L871 469M873 472L874 473L873 472z"/>
<path style="fill:#9a9a9a; stroke:none;" d="M874 472L875 473L874 472z"/>
<path style="fill:#5b5b5b; stroke:none;" d="M506 473L507 474L506 473M873 473L877 476L873 473z"/>
<path style="fill:#2c2c2c; stroke:none;" d="M875 473L876 474L875 473z"/>
<path style="fill:#5b5b5b; stroke:none;" d="M508.333 474.667L508.667 475.333L508.333 474.667M877 476L880 479L877 476z"/>
<path style="fill:#2c2c2c; stroke:none;" d="M878 476L879 477L878 476z"/>
<path style="fill:#5b5b5b; stroke:none;" d="M511 477L512 478L511 477z"/>
<path style="fill:#2c2c2c; stroke:none;" d="M511 478L512 479L511 478z"/>
<path style="fill:#5b5b5b; stroke:none;" d="M512 479L513 480L512 479M880 479L880 483L883 483L880 479z"/>
<path style="fill:#2c2c2c; stroke:none;" d="M513 480L514 481L513 480z"/>
<path style="fill:#5b5b5b; stroke:none;" d="M514 480L515 481L514 480z"/>
<path style="fill:#2c2c2c; stroke:none;" d="M882 480L883 481L882 480z"/>
<path style="fill:#5b5b5b; stroke:none;" d="M516.667 483.333L517.333 483.667L516.667 483.333M883 483L887 486L883 483z"/>
<path style="fill:#2c2c2c; stroke:none;" d="M885 483L886 484L885 483z"/>
<path style="fill:#5b5b5b; stroke:none;" d="M518 484L519 485L518 484M887 486L890 489L887 486z"/>
<path style="fill:#2c2c2c; stroke:none;" d="M888 486L889 487L888 486M890 489L891 490L890 489z"/>
<path style="fill:#9a9a9a; stroke:none;" d="M891 489L892 490L891 489z"/>
<path style="fill:#5b5b5b; stroke:none;" d="M523 490L524 491L523 490M890 490L894 493L890 490z"/>
<path style="fill:#2c2c2c; stroke:none;" d="M892 490L893 491L892 490z"/>
<path style="fill:#5b5b5b; stroke:none;" d="M525.333 491.667L525.667 492.333L525.333 491.667M894 493L897 496L894 493z"/>
<path style="fill:#2c2c2c; stroke:none;" d="M895 493L896 494L895 493z"/>
<path style="fill:#5b5b5b; stroke:none;" d="M528 494L529 495L528 494z"/>
<path style="fill:#2c2c2c; stroke:none;" d="M528 495L529 496L528 495z"/>
<path style="fill:#5b5b5b; stroke:none;" d="M529 496L530 497L529 496M897 496L900 500L897 496z"/>
<path style="fill:#2c2c2c; stroke:none;" d="M530 497L531 498L530 497z"/>
<path style="fill:#5b5b5b; stroke:none;" d="M531 497L532 498L531 497z"/>
<path style="fill:#2c2c2c; stroke:none;" d="M899 497L900 498L899 497z"/>
<path style="fill:#5b5b5b; stroke:none;" d="M533.667 500.333L534.333 500.667L533.667 500.333M900 500L904 503L900 500z"/>
<path style="fill:#2c2c2c; stroke:none;" d="M902 500L903 501L902 500z"/>
<path style="fill:#5b5b5b; stroke:none;" d="M535 501L536 502L535 501M904 503L907 506L904 503z"/>
<path style="fill:#2c2c2c; stroke:none;" d="M905 503L906 504L905 503M907 506L908 507L907 506z"/>
<path style="fill:#9a9a9a; stroke:none;" d="M908 506L909 507L908 506z"/>
<path style="fill:#5b5b5b; stroke:none;" d="M540 507L541 508L540 507M907 507L911 510L907 507z"/>
<path style="fill:#2c2c2c; stroke:none;" d="M909 507L910 508L909 507z"/>
<path style="fill:#5b5b5b; stroke:none;" d="M542.333 508.667L542.667 509.333L542.333 508.667M911 510L914 513L911 510z"/>
<path style="fill:#2c2c2c; stroke:none;" d="M912 510L913 511L912 510z"/>
<path style="fill:#5b5b5b; stroke:none;" d="M545 511L546 512L545 511z"/>
<path style="fill:#2c2c2c; stroke:none;" d="M545 512L546 513L545 512z"/>
<path style="fill:#5b5b5b; stroke:none;" d="M546 513L547 514L546 513M914 513L917 517L914 513z"/>
<path style="fill:#2c2c2c; stroke:none;" d="M547 514L548 515L547 514z"/>
<path style="fill:#5b5b5b; stroke:none;" d="M548 514L549 515L548 514z"/>
<path style="fill:#2c2c2c; stroke:none;" d="M916 514L917 515L916 514z"/>
<path style="fill:#5b5b5b; stroke:none;" d="M917 517L921 520L917 517z"/>
<path style="fill:#2c2c2c; stroke:none;" d="M919 517L920 518L919 517z"/>
<path style="fill:#5b5b5b; stroke:none;" d="M552 518L553 519L552 518M921 520L924 523L921 520z"/>
<path style="fill:#2c2c2c; stroke:none;" d="M922 520L923 521L922 520M924 523L925 524L924 523z"/>
<path style="fill:#9a9a9a; stroke:none;" d="M925 523L926 524L925 523z"/>
<path style="fill:#5b5b5b; stroke:none;" d="M557 524L558 525L557 524M924 524L928 527L924 524z"/>
<path style="fill:#2c2c2c; stroke:none;" d="M926 524L927 525L926 524z"/>
<path style="fill:#5b5b5b; stroke:none;" d="M559.333 525.667L559.667 526.333L559.333 525.667M928 527L931 530L928 527z"/>
<path style="fill:#2c2c2c; stroke:none;" d="M929 527L930 528L929 527M562 528L563 529L562 528z"/>
<path style="fill:#5b5b5b; stroke:none;" d="M563 530L564 531L563 530M931 530L934 534L931 530z"/>
<path style="fill:#2c2c2c; stroke:none;" d="M564 531L565 532L564 531z"/>
<path style="fill:#5b5b5b; stroke:none;" d="M565 531L566 532L565 531z"/>
<path style="fill:#2c2c2c; stroke:none;" d="M933 531L934 532L933 531z"/>
<path style="fill:#5b5b5b; stroke:none;" d="M934 534L938 537L934 534z"/>
<path style="fill:#2c2c2c; stroke:none;" d="M936 534L937 535L936 534z"/>
<path style="fill:#5b5b5b; stroke:none;" d="M569 535L570 536L569 535M938 537L941 540L938 537z"/>
<path style="fill:#2c2c2c; stroke:none;" d="M939 537L940 538L939 537M941 540L942 541L941 540z"/>
<path style="fill:#9a9a9a; stroke:none;" d="M942 540L943 541L942 540z"/>
<path style="fill:#5b5b5b; stroke:none;" d="M574 541L575 542L574 541M941 541L945 544L941 541z"/>
<path style="fill:#2c2c2c; stroke:none;" d="M943 541L944 542L943 541z"/>
<path style="fill:#5b5b5b; stroke:none;" d="M576.333 542.667L576.667 543.333L576.333 542.667M945 544L948 547L945 544z"/>
<path style="fill:#2c2c2c; stroke:none;" d="M946 544L947 545L946 544M579 545L580 546L579 545z"/>
<path style="fill:#5b5b5b; stroke:none;" d="M580 547L581 548L580 547M948 547L951 551L948 547z"/>
<path style="fill:#2c2c2c; stroke:none;" d="M581 548L582 549L581 548z"/>
<path style="fill:#5b5b5b; stroke:none;" d="M582 548L583 549L582 548z"/>
<path style="fill:#2c2c2c; stroke:none;" d="M950 548L951 549L950 548z"/>
<path style="fill:#5b5b5b; stroke:none;" d="M951 551L955 554L951 551z"/>
<path style="fill:#2c2c2c; stroke:none;" d="M953 551L954 552L953 551z"/>
<path style="fill:#5b5b5b; stroke:none;" d="M586 552L587 553L586 552z"/>
<path style="fill:#2c2c2c; stroke:none;" d="M954 552L955 553L954 552z"/>
<path style="fill:#5b5b5b; stroke:none;" d="M955 554L958 557L955 554z"/>
<path style="fill:#2c2c2c; stroke:none;" d="M956 554L957 555L956 554M958 557L959 558L958 557z"/>
<path style="fill:#9a9a9a; stroke:none;" d="M959 557L960 558L959 557z"/>
<path style="fill:#5b5b5b; stroke:none;" d="M591 558L592 559L591 558M958 558L965 565L958 558z"/>
<path style="fill:#2c2c2c; stroke:none;" d="M960 558L961 559L960 558z"/>
<path style="fill:#5b5b5b; stroke:none;" d="M593.333 559.667L593.667 560.333L593.333 559.667z"/>
<path style="fill:#2c2c2c; stroke:none;" d="M596 562L597 563L596 562z"/>
<path style="fill:#5b5b5b; stroke:none;" d="M597 564L598 565L597 564z"/>
<path style="fill:#2c2c2c; stroke:none;" d="M598 565L599 566L598 565z"/>
<path style="fill:#5b5b5b; stroke:none;" d="M599 565L600 566L599 565z"/>
<path style="fill:#2c2c2c; stroke:none;" d="M965 565L968 570L969 570L965 565z"/>
<path style="fill:#5b5b5b; stroke:none;" d="M965.667 567.333L966.333 567.667L965.667 567.333M967 568L968 569L967 568M603 569L604 570L603 569M968 570L969 571L968 570M969 571L969 572L972 573L969 571z"/>
<path style="fill:#2c2c2c; stroke:none;" d="M971 571L972 572L971 571M972.667 574.333L973.333 574.667L972.667 574.333z"/>
<path style="fill:#5b5b5b; stroke:none;" d="M608 575L609 576L608 575M972 575L972 576L975 576L972 575M610.333 576.667L610.667 577.333L610.333 576.667z"/>
<path style="fill:#2c2c2c; stroke:none;" d="M613 579L614 580L613 579M975.333 579.667L975.667 580.333L975.333 579.667z"/>
<path style="fill:#5b5b5b; stroke:none;" d="M614 581L615 582L614 581M975 581L975 583L978 583L978 581L975 581z"/>
<path style="fill:#2c2c2c; stroke:none;" d="M615 582L616 583L615 582z"/>
<path style="fill:#5b5b5b; stroke:none;" d="M616 582L617 583L616 582z"/>
<path style="fill:#2c2c2c; stroke:none;" d="M979 585L982 588L979 585z"/>
<path style="fill:#5b5b5b; stroke:none;" d="M620 586L621 587L620 586M978 587L979 588L978 587M979 588L979 589L982 589L979 588M625 592L626 593L625 592M627.333 593.667L627.667 594.333L627.333 593.667z"/>
<path style="fill:#2c2c2c; stroke:none;" d="M982 594L985 596L985 595L982 594M630 596L631 597L630 596z"/>
<path style="fill:#5b5b5b; stroke:none;" d="M982 596L986 599L985 596L982 596z"/>
<path style="fill:#9a9a9a; stroke:none;" d="M985 597L986 598L985 597z"/>
<path style="fill:#5b5b5b; stroke:none;" d="M631 598L632 599L631 598z"/>
<path style="fill:#2c2c2c; stroke:none;" d="M632 599L633 600L632 599z"/>
<path style="fill:#5b5b5b; stroke:none;" d="M633 599L634 600L633 599M637 603L638 604L637 603M985 603C985.014 607.083 984.48 611.678 989 613L985 603z"/>
<path style="fill:#2c2c2c; stroke:none;" d="M986 605L989 608L986 605z"/>
<path style="fill:#5b5b5b; stroke:none;" d="M642 609L643 610L642 609M644.333 610.667L644.667 611.333L644.333 610.667z"/>
<path style="fill:#2c2c2c; stroke:none;" d="M647 613L648 614L647 613z"/>
<path style="fill:#5b5b5b; stroke:none;" d="M648 615L649 616L648 615z"/>
<path style="fill:#2c2c2c; stroke:none;" d="M649 616L650 617L649 616z"/>
<path style="fill:#5b5b5b; stroke:none;" d="M650 616L651 617L650 616M654 620L655 621L654 620M658 625L658 627L660 625L658 625z"/>
<path style="fill:#9a9a9a; stroke:none;" d="M403 1231C397.639 1229.42 392.056 1229.57 387 1232L387 1234L396 1236C398.69 1231.12 410.533 1228.74 416 1229L416 1225L430 1222L466.87 1183.58L551.116 1099.35L823.87 826.576L926.626 723.79L957.576 692.87L972 681L974 678L974 677L972 674C975.054 673.346 974.936 671.994 975 669L982 662C982.043 649.96 991.625 638.262 988 626C980.788 630.908 985.277 639.962 983.326 646.83C979.63 659.845 971.78 672.586 963.11 682.999C951.295 697.191 936.842 709.51 923.884 722.651C894.478 752.472 864.443 781.675 835.116 811.576C733.874 914.796 630.586 1016.11 528.349 1118.35C498.816 1147.88 470.145 1178.89 439.385 1207.13C432.373 1213.57 424.247 1218.92 415.91 1223.43C411.207 1225.98 405.878 1226.2 403 1231z"/>
<path style="fill:#2c2c2c; stroke:none;" d="M657 628L658 629L657 628M654 629L655 630L654 629z"/>
<path style="fill:#5b5b5b; stroke:none;" d="M655.667 629.333L656.333 629.667L655.667 629.333M654.333 630.667L654.667 631.333L654.333 630.667M651 635L652 635L654 633C651.86 631.882 651.473 632.749 651 635z"/>
<path style="fill:#2c2c2c; stroke:none;" d="M647 639L648 639L651 636L647 639z"/>
<path style="fill:#5b5b5b; stroke:none;" d="M648 636L649 637L648 636M987 638L985 648L986 648L989 638L987 638M644 642L645 642L647 640C644.86 638.882 644.473 639.749 644 642M641 645L642 645L644 643C641.86 641.882 641.473 642.749 641 645z"/>
<path style="fill:#2c2c2c; stroke:none;" d="M987 643L986 647L989 643L987 643M640 645L641 646L640 645M637 646L638 647L637 646z"/>
<path style="fill:#5b5b5b; stroke:none;" d="M638.667 646.333L639.333 646.667L638.667 646.333M637.333 647.667L637.667 648.333L637.333 647.667M634 652L635 652L637 650C634.86 648.882 634.473 649.749 634 652z"/>
<path style="fill:#2c2c2c; stroke:none;" d="M630 656L631 656L634 653L630 656z"/>
<path style="fill:#5b5b5b; stroke:none;" d="M982 655L986 652L982 655M631 653L632 654L631 653z"/>
<path style="fill:#9a9a9a; stroke:none;" d="M985 653L986 654L985 653z"/>
<path style="fill:#2c2c2c; stroke:none;" d="M984 654L982 657L984 654z"/>
<path style="fill:#5b5b5b; stroke:none;" d="M627 659L628 659L630 657C627.86 655.882 627.473 656.749 627 659M624 662L625 662L627 660C624.86 658.882 624.473 659.749 624 662z"/>
<path style="fill:#2c2c2c; stroke:none;" d="M623 662L624 663L623 662z"/>
<path style="fill:#5b5b5b; stroke:none;" d="M978 665L982 663L978 665z"/>
<path style="fill:#2c2c2c; stroke:none;" d="M620 663L621 664L620 663z"/>
<path style="fill:#5b5b5b; stroke:none;" d="M621.667 663.333L622.333 663.667L621.667 663.333z"/>
<path style="fill:#2c2c2c; stroke:none;" d="M981 663L982 664L981 663z"/>
<path style="fill:#5b5b5b; stroke:none;" d="M620.333 664.667L620.667 665.333L620.333 664.667z"/>
<path style="fill:#2c2c2c; stroke:none;" d="M979.333 664.667L979.667 665.333L979.333 664.667z"/>
<path style="fill:#5b5b5b; stroke:none;" d="M617 669L618 669L620 667C617.86 665.882 617.473 666.749 617 669M978 668L975 671L978 668z"/>
<path style="fill:#2c2c2c; stroke:none;" d="M613 673L614 673L617 670L613 673z"/>
<path style="fill:#5b5b5b; stroke:none;" d="M614 670L615 671L614 670z"/>
<path style="fill:#2c2c2c; stroke:none;" d="M977 670L978 671L977 670z"/>
<path style="fill:#5b5b5b; stroke:none;" d="M610 676L611 676L613 674C610.86 672.882 610.473 673.749 610 676M972 674L972 677L975 677L975 674L972 674M607 678L610 677L607 678z"/>
<path style="fill:#2c2c2c; stroke:none;" d="M605.667 679.333L606.333 679.667L605.667 679.333M603 680L604 681L603 680z"/>
<path style="fill:#5b5b5b; stroke:none;" d="M604 680L605 681L604 680M603.333 681.667L603.667 682.333L603.333 681.667M968.333 681.667L968.667 682.333L968.333 681.667M600 686L601 686L603 684C600.86 682.882 600.473 683.749 600 686M967 683L968 684L967 683z"/>
<path style="fill:#2c2c2c; stroke:none;" d="M965.667 684.333L966.333 684.667L965.667 684.333M596 690L597 690L600 687L596 690z"/>
<path style="fill:#5b5b5b; stroke:none;" d="M964 686L960 691L964 686M597 687L598 688L597 687z"/>
<path style="fill:#2c2c2c; stroke:none;" d="M962.333 688.667L962.667 689.333L962.333 688.667z"/>
<path style="fill:#5b5b5b; stroke:none;" d="M593 693L594 693L596 691C593.86 689.882 593.473 690.749 593 693z"/>
<path style="fill:#2c2c2c; stroke:none;" d="M958 694L961 691L958 694z"/>
<path style="fill:#5b5b5b; stroke:none;" d="M590 695L593 694L590 695M957 693L943 708L957 693z"/>
<path style="fill:#2c2c2c; stroke:none;" d="M955 695L955 697L957 695L955 695M588.667 696.333L589.333 696.667L588.667 696.333M586 697L587 698L586 697z"/>
<path style="fill:#5b5b5b; stroke:none;" d="M587 697L588 698L587 697M586.333 698.667L586.667 699.333L586.333 698.667z"/>
<path style="fill:#2c2c2c; stroke:none;" d="M952 698L952 700L954 698L952 698z"/>
<path style="fill:#5b5b5b; stroke:none;" d="M583 703L584 703L586 701C583.86 699.882 583.473 700.749 583 703z"/>
<path style="fill:#2c2c2c; stroke:none;" d="M951 700L952 701L951 700M950 701L951 702L950 701M948 702L948 704L950 702L948 702M579 707L580 707L583 704L579 707z"/>
<path style="fill:#5b5b5b; stroke:none;" d="M580 704L581 705L580 704z"/>
<path style="fill:#2c2c2c; stroke:none;" d="M945 705L945 707L947 705L945 705z"/>
<path style="fill:#5b5b5b; stroke:none;" d="M576 710L577 710L579 708C576.86 706.882 576.473 707.749 576 710z"/>
<path style="fill:#2c2c2c; stroke:none;" d="M941 711L944 708L941 711z"/>
<path style="fill:#5b5b5b; stroke:none;" d="M573 712L576 711L573 712M940 710L926 725L940 710z"/>
<path style="fill:#2c2c2c; stroke:none;" d="M938 712L938 714L940 712L938 712M571.667 713.333L572.333 713.667L571.667 713.333M569 714L570 715L569 714z"/>
<path style="fill:#5b5b5b; stroke:none;" d="M570 714L571 715L570 714M569.333 715.667L569.667 716.333L569.333 715.667z"/>
<path style="fill:#2c2c2c; stroke:none;" d="M935 715L935 717L937 715L935 715z"/>
<path style="fill:#5b5b5b; stroke:none;" d="M566 720L567 720L569 718C566.86 716.882 566.473 717.749 566 720z"/>
<path style="fill:#2c2c2c; stroke:none;" d="M934 717L935 718L934 717M933 718L934 719L933 718M931 719L931 721L933 719L931 719M562 724L563 724L566 721L562 724z"/>
<path style="fill:#5b5b5b; stroke:none;" d="M563 721L564 722L563 721z"/>
<path style="fill:#2c2c2c; stroke:none;" d="M928 722L928 724L930 722L928 722z"/>
<path style="fill:#5b5b5b; stroke:none;" d="M559 727L560 727L562 725C559.86 723.882 559.473 724.749 559 727z"/>
<path style="fill:#2c2c2c; stroke:none;" d="M924 728L927 725L924 728z"/>
<path style="fill:#5b5b5b; stroke:none;" d="M556 729L559 728L556 729M923 727L909 742L923 727z"/>
<path style="fill:#2c2c2c; stroke:none;" d="M921 729L921 731L923 729L921 729M554.667 730.333L555.333 730.667L554.667 730.333M552 731L553 732L552 731z"/>
<path style="fill:#5b5b5b; stroke:none;" d="M553 731L554 732L553 731M552.333 732.667L552.667 733.333L552.333 732.667z"/>
<path style="fill:#2c2c2c; stroke:none;" d="M918 732L918 734L920 732L918 732z"/>
<path style="fill:#5b5b5b; stroke:none;" d="M549 737L550 737L552 735C549.86 733.882 549.473 734.749 549 737z"/>
<path style="fill:#2c2c2c; stroke:none;" d="M917 734L918 735L917 734M916 735L917 736L916 735M914 736L914 738L916 736L914 736M545 738L545 739L549 738L545 738z"/>
<path style="fill:#5b5b5b; stroke:none;" d="M546 738L547 739L546 738M545 739L546 740L545 739z"/>
<path style="fill:#2c2c2c; stroke:none;" d="M911 739L911 741L913 739L911 739M545 740L546 741L545 740z"/>
<path style="fill:#5b5b5b; stroke:none;" d="M542 744L543 744L545 742C542.86 740.882 542.473 741.749 542 744z"/>
<path style="fill:#2c2c2c; stroke:none;" d="M907 745L910 742L907 745z"/>
<path style="fill:#5b5b5b; stroke:none;" d="M539 746L542 745L539 746M906 744L892 759L906 744z"/>
<path style="fill:#2c2c2c; stroke:none;" d="M904 746L904 748L906 746L904 746M537.667 747.333L538.333 747.667L537.667 747.333M535 748L536 749L535 748z"/>
<path style="fill:#5b5b5b; stroke:none;" d="M536 748L537 749L536 748M535.333 749.667L535.667 750.333L535.333 749.667z"/>
<path style="fill:#2c2c2c; stroke:none;" d="M901 749L901 751L903 749L901 749z"/>
<path style="fill:#5b5b5b; stroke:none;" d="M532 754L533 754L535 752C532.86 750.882 532.473 751.749 532 754z"/>
<path style="fill:#2c2c2c; stroke:none;" d="M900 751L901 752L900 751M899 752L900 753L899 752M897 753L897 755L899 753L897 753M528 755L528 756L532 755L528 755z"/>
<path style="fill:#5b5b5b; stroke:none;" d="M529 755L530 756L529 755M528 756L529 757L528 756z"/>
<path style="fill:#2c2c2c; stroke:none;" d="M894 756L894 758L896 756L894 756M528 757L529 758L528 757z"/>
<path style="fill:#5b5b5b; stroke:none;" d="M525 761L526 761L528 759C525.86 757.882 525.473 758.749 525 761z"/>
<path style="fill:#2c2c2c; stroke:none;" d="M890 762L893 759L890 762z"/>
<path style="fill:#5b5b5b; stroke:none;" d="M522 763L525 762L522 763M889 761L875 776L889 761z"/>
<path style="fill:#2c2c2c; stroke:none;" d="M887 763L887 765L889 763L887 763M520.667 764.333L521.333 764.667L520.667 764.333M518 765L519 766L518 765z"/>
<path style="fill:#5b5b5b; stroke:none;" d="M519 765L520 766L519 765M518.333 766.667L518.667 767.333L518.333 766.667z"/>
<path style="fill:#2c2c2c; stroke:none;" d="M884 766L884 768L886 766L884 766z"/>
<path style="fill:#5b5b5b; stroke:none;" d="M515 771L516 771L518 769C515.86 767.882 515.473 768.749 515 771z"/>
<path style="fill:#2c2c2c; stroke:none;" d="M883 768L884 769L883 768M882 769L883 770L882 769M880 770L880 772L882 770L880 770M511 772L511 773L515 772L511 772z"/>
<path style="fill:#5b5b5b; stroke:none;" d="M512 772L513 773L512 772M511 773L512 774L511 773z"/>
<path style="fill:#2c2c2c; stroke:none;" d="M877 773L877 775L879 773L877 773M511 774L512 775L511 774z"/>
<path style="fill:#5b5b5b; stroke:none;" d="M508 778L509 778L511 776C508.86 774.882 508.473 775.749 508 778z"/>
<path style="fill:#2c2c2c; stroke:none;" d="M873 779L876 776L873 779z"/>
<path style="fill:#5b5b5b; stroke:none;" d="M505 780L508 779L505 780M872 778L858 793L872 778z"/>
<path style="fill:#2c2c2c; stroke:none;" d="M504 780L503 782L505 782L504 780M870 780L870 782L872 780L870 780M501 782L502 783L501 782z"/>
<path style="fill:#5b5b5b; stroke:none;" d="M502 782L503 783L502 782M501.333 783.667L501.667 784.333L501.333 783.667z"/>
<path style="fill:#2c2c2c; stroke:none;" d="M867 783L867 785L869 783L867 783z"/>
<path style="fill:#5b5b5b; stroke:none;" d="M498 788L499 788L501 786C498.86 784.882 498.473 785.749 498 788z"/>
<path style="fill:#2c2c2c; stroke:none;" d="M866 785L867 786L866 785M865 786L866 787L865 786M863 787L863 789L865 787L863 787M494 789L494 790L498 789L494 789z"/>
<path style="fill:#5b5b5b; stroke:none;" d="M495 789L496 790L495 789M494 790L495 791L494 790z"/>
<path style="fill:#2c2c2c; stroke:none;" d="M860 790L860 792L862 790L860 790M494 791L495 792L494 791z"/>
<path style="fill:#5b5b5b; stroke:none;" d="M491 795L492 795L494 793C491.86 791.882 491.473 792.749 491 795z"/>
<path style="fill:#2c2c2c; stroke:none;" d="M856 796L859 793L856 796z"/>
<path style="fill:#5b5b5b; stroke:none;" d="M488 797L491 796L488 797M855 795L841 810L855 795z"/>
<path style="fill:#2c2c2c; stroke:none;" d="M487 797L486 799L488 799L487 797M853 797L853 799L855 797L853 797M484 799L485 800L484 799z"/>
<path style="fill:#5b5b5b; stroke:none;" d="M485 799L486 800L485 799M484.333 800.667L484.667 801.333L484.333 800.667z"/>
<path style="fill:#2c2c2c; stroke:none;" d="M850 800L850 802L852 800L850 800z"/>
<path style="fill:#5b5b5b; stroke:none;" d="M481 805L482 805L484 803C481.86 801.882 481.473 802.749 481 805z"/>
<path style="fill:#2c2c2c; stroke:none;" d="M849 802L850 803L849 802M848 803L849 804L848 803M846 804L846 806L848 804L846 804M477 806L477 807L481 806L477 806z"/>
<path style="fill:#5b5b5b; stroke:none;" d="M478 806L479 807L478 806M477 807L478 808L477 807z"/>
<path style="fill:#2c2c2c; stroke:none;" d="M843 807L843 809L845 807L843 807M477 808L478 809L477 808z"/>
<path style="fill:#5b5b5b; stroke:none;" d="M474 812L475 812L477 810C474.86 808.882 474.473 809.749 474 812z"/>
<path style="fill:#2c2c2c; stroke:none;" d="M839 813L842 810L839 813z"/>
<path style="fill:#5b5b5b; stroke:none;" d="M471 814L474 813L471 814M838 812L824 827L838 812z"/>
<path style="fill:#2c2c2c; stroke:none;" d="M470 814L469 816L471 816L470 814M836 814L836 816L838 814L836 814M467 816L468 817L467 816z"/>
<path style="fill:#5b5b5b; stroke:none;" d="M468 816L469 817L468 816M467.333 817.667L467.667 818.333L467.333 817.667z"/>
<path style="fill:#2c2c2c; stroke:none;" d="M833 817L833 819L835 817L833 817z"/>
<path style="fill:#5b5b5b; stroke:none;" d="M464 822L465 822L467 820C464.86 818.882 464.473 819.749 464 822z"/>
<path style="fill:#2c2c2c; stroke:none;" d="M832 819L833 820L832 819M831 820L832 821L831 820M829 821L829 823L831 821L829 821M460 823L460 824L464 823L460 823z"/>
<path style="fill:#5b5b5b; stroke:none;" d="M461 823L462 824L461 823M460 824L461 825L460 824z"/>
<path style="fill:#2c2c2c; stroke:none;" d="M826 824L826 826L828 824L826 824M460 825L461 826L460 825z"/>
<path style="fill:#5b5b5b; stroke:none;" d="M457 829L458 829L460 827C457.86 825.882 457.473 826.749 457 829z"/>
<path style="fill:#2c2c2c; stroke:none;" d="M822 830L825 827L822 830z"/>
<path style="fill:#5b5b5b; stroke:none;" d="M454 831L457 830L454 831M821 829L807 844L821 829z"/>
<path style="fill:#2c2c2c; stroke:none;" d="M453 831L452 833L454 833L453 831M819 831L819 833L821 831L819 831z"/>
<path style="fill:#5b5b5b; stroke:none;" d="M450 833L450 836L451 836L452 833L450 833z"/>
<path style="fill:#2c2c2c; stroke:none;" d="M816 834L816 836L818 834L816 834z"/>
<path style="fill:#5b5b5b; stroke:none;" d="M447 839L448 839L450 837C447.86 835.882 447.473 836.749 447 839z"/>
<path style="fill:#2c2c2c; stroke:none;" d="M814 837L815 838L814 837M812 838L812 840L814 838L812 838M443 840L443 841L447 840L443 840z"/>
<path style="fill:#5b5b5b; stroke:none;" d="M444 840L445 841L444 840M443 841L444 842L443 841z"/>
<path style="fill:#2c2c2c; stroke:none;" d="M809 841L809 843L811 841L809 841M443 842L444 843L443 842z"/>
<path style="fill:#5b5b5b; stroke:none;" d="M440 846L441 846L443 844C440.86 842.882 440.473 843.749 440 846z"/>
<path style="fill:#2c2c2c; stroke:none;" d="M805 847L808 844L805 847z"/>
<path style="fill:#5b5b5b; stroke:none;" d="M437 848L440 847L437 848M804 846L790 861L804 846z"/>
<path style="fill:#2c2c2c; stroke:none;" d="M436 848L435 850L437 850L436 848M802 848L802 850L804 848L802 848M433 850L434 851L433 850z"/>
<path style="fill:#5b5b5b; stroke:none;" d="M434 850L435 851L434 850M433.333 851.667L433.667 852.333L433.333 851.667z"/>
<path style="fill:#2c2c2c; stroke:none;" d="M799 851L799 853L801 851L799 851M430 853L431 854L430 853z"/>
<path style="fill:#5b5b5b; stroke:none;" d="M431.667 853.333L432.333 853.667L431.667 853.333M430.333 854.667L430.667 855.333L430.333 854.667z"/>
<path style="fill:#2c2c2c; stroke:none;" d="M797 854L798 855L797 854M795 855L795 857L797 855L795 855M428.667 856.333L429.333 856.667L428.667 856.333M426 857L426 860L427 860L426 857z"/>
<path style="fill:#5b5b5b; stroke:none;" d="M427 857L428 858L427 857z"/>
<path style="fill:#2c2c2c; stroke:none;" d="M792 858L792 860L794 858L792 858M423 860L424 861L423 860z"/>
<path style="fill:#5b5b5b; stroke:none;" d="M424.667 860.333L425.333 860.667L424.667 860.333M423.333 861.667L423.667 862.333L423.333 861.667z"/>
<path style="fill:#2c2c2c; stroke:none;" d="M788 864L791 861L788 864M420.667 863.333L421.333 863.667L420.667 863.333z"/>
<path style="fill:#5b5b5b; stroke:none;" d="M422 863L423 864L422 863M787 863L773 878L787 863M420.333 864.667L420.667 865.333L420.333 864.667z"/>
<path style="fill:#2c2c2c; stroke:none;" d="M785 865L785 867L787 865L785 865M416 867L417 868L416 867z"/>
<path style="fill:#5b5b5b; stroke:none;" d="M417.667 867.333L418.333 867.667L417.667 867.333M416.333 868.667L416.667 869.333L416.333 868.667z"/>
<path style="fill:#2c2c2c; stroke:none;" d="M782 868L782 870L784 868L782 868M413 870L414 871L413 870z"/>
<path style="fill:#5b5b5b; stroke:none;" d="M414.667 870.333L415.333 870.667L414.667 870.333M413.333 871.667L413.667 872.333L413.333 871.667z"/>
<path style="fill:#2c2c2c; stroke:none;" d="M780 871L781 872L780 871M778 872L778 874L780 872L778 872M411.667 873.333L412.333 873.667L411.667 873.333M409 874L409 877L410 877L409 874z"/>
<path style="fill:#5b5b5b; stroke:none;" d="M410 874L411 875L410 874z"/>
<path style="fill:#2c2c2c; stroke:none;" d="M775 875L775 877L777 875L775 875M406 877L407 878L406 877z"/>
<path style="fill:#5b5b5b; stroke:none;" d="M407.667 877.333L408.333 877.667L407.667 877.333M406.333 878.667L406.667 879.333L406.333 878.667z"/>
<path style="fill:#2c2c2c; stroke:none;" d="M771 881L774 878L771 881M403.667 880.333L404.333 880.667L403.667 880.333z"/>
<path style="fill:#5b5b5b; stroke:none;" d="M405 880L406 881L405 880M770 880L756 895L770 880M403.333 881.667L403.667 882.333L403.333 881.667z"/>
<path style="fill:#2c2c2c; stroke:none;" d="M768 882L768 884L770 882L768 882M399 884L400 885L399 884z"/>
<path style="fill:#5b5b5b; stroke:none;" d="M400.667 884.333L401.333 884.667L400.667 884.333M399.333 885.667L399.667 886.333L399.333 885.667z"/>
<path style="fill:#2c2c2c; stroke:none;" d="M765 885L765 887L767 885L765 885M396 887L397 888L396 887z"/>
<path style="fill:#5b5b5b; stroke:none;" d="M397.667 887.333L398.333 887.667L397.667 887.333M396.333 888.667L396.667 889.333L396.333 888.667z"/>
<path style="fill:#2c2c2c; stroke:none;" d="M763 888L764 889L763 888M761 889L761 891L763 889L761 889M395 890L396 891L395 890M392 891L392 894L393 894L392 891z"/>
<path style="fill:#5b5b5b; stroke:none;" d="M393 891L394 892L393 891z"/>
<path style="fill:#2c2c2c; stroke:none;" d="M758 892L758 894L760 892L758 892M389 894L390 895L389 894z"/>
<path style="fill:#5b5b5b; stroke:none;" d="M390.667 894.333L391.333 894.667L390.667 894.333M389.333 895.667L389.667 896.333L389.333 895.667z"/>
<path style="fill:#2c2c2c; stroke:none;" d="M754 898L757 895L754 898M386.667 897.333L387.333 897.667L386.667 897.333z"/>
<path style="fill:#5b5b5b; stroke:none;" d="M388 897L389 898L388 897M753 897L739 912L753 897M386.333 898.667L386.667 899.333L386.333 898.667z"/>
<path style="fill:#2c2c2c; stroke:none;" d="M751 899L751 901L753 899L751 899M382 901L383 902L382 901z"/>
<path style="fill:#5b5b5b; stroke:none;" d="M383.667 901.333L384.333 901.667L383.667 901.333M382.333 902.667L382.667 903.333L382.333 902.667z"/>
<path style="fill:#2c2c2c; stroke:none;" d="M748 902L748 904L750 902L748 902M379 904L380 905L379 904z"/>
<path style="fill:#5b5b5b; stroke:none;" d="M380.667 904.333L381.333 904.667L380.667 904.333M379.333 905.667L379.667 906.333L379.333 905.667z"/>
<path style="fill:#2c2c2c; stroke:none;" d="M746 905L747 906L746 905M744 906L744 908L746 906L744 906M378 907L379 908L378 907M375 908L375 911L376 911L375 908z"/>
<path style="fill:#5b5b5b; stroke:none;" d="M376 908L377 909L376 908z"/>
<path style="fill:#2c2c2c; stroke:none;" d="M741 909L741 911L743 909L741 909M372 911L373 912L372 911z"/>
<path style="fill:#5b5b5b; stroke:none;" d="M373.667 911.333L374.333 911.667L373.667 911.333M372.333 912.667L372.667 913.333L372.333 912.667z"/>
<path style="fill:#2c2c2c; stroke:none;" d="M737 915L740 912L737 915M369.667 914.333L370.333 914.667L369.667 914.333z"/>
<path style="fill:#5b5b5b; stroke:none;" d="M371 914L372 915L371 914M736 914L722 929L736 914M369.333 915.667L369.667 916.333L369.333 915.667z"/>
<path style="fill:#2c2c2c; stroke:none;" d="M734 916L734 918L736 916L734 916M365 918L366 919L365 918z"/>
<path style="fill:#5b5b5b; stroke:none;" d="M366.667 918.333L367.333 918.667L366.667 918.333M365.333 919.667L365.667 920.333L365.333 919.667z"/>
<path style="fill:#2c2c2c; stroke:none;" d="M731 919L731 921L733 919L731 919M362 921L363 922L362 921z"/>
<path style="fill:#5b5b5b; stroke:none;" d="M363.667 921.333L364.333 921.667L363.667 921.333M362.333 922.667L362.667 923.333L362.333 922.667z"/>
<path style="fill:#2c2c2c; stroke:none;" d="M729 922L730 923L729 922M727 923L727 925L729 923L727 923M361 924L362 925L361 924M358 925L358 928L359 928L358 925z"/>
<path style="fill:#5b5b5b; stroke:none;" d="M359 925L360 926L359 925z"/>
<path style="fill:#2c2c2c; stroke:none;" d="M724 926L724 928L726 926L724 926M355 928L356 929L355 928z"/>
<path style="fill:#5b5b5b; stroke:none;" d="M356.667 928.333L357.333 928.667L356.667 928.333M355.333 929.667L355.667 930.333L355.333 929.667z"/>
<path style="fill:#2c2c2c; stroke:none;" d="M720 932L723 929L720 932M352.667 931.333L353.333 931.667L352.667 931.333z"/>
<path style="fill:#5b5b5b; stroke:none;" d="M354 931L355 932L354 931M719 931L714 935L714 936L719 931M352.333 932.667L352.667 933.333L352.333 932.667z"/>
<path style="fill:#2c2c2c; stroke:none;" d="M717 933L717 935L719 933L717 933M348 935L349 936L348 935z"/>
<path style="fill:#5b5b5b; stroke:none;" d="M349.667 935.333L350.333 935.667L349.667 935.333M348.333 936.667L348.667 937.333L348.333 936.667z"/>
<path style="fill:#2c2c2c; stroke:none;" d="M713 936L710 942L716 936L713 936M345 938L346 939L345 938z"/>
<path style="fill:#5b5b5b; stroke:none;" d="M346.667 938.333L347.333 938.667L346.667 938.333M712 938L713 939L712 938M345.333 939.667L345.667 940.333L345.333 939.667M710.667 939.333L711.333 939.667L710.667 939.333M709 940L705 946C707.382 944.837 710.375 942.652 709 940z"/>
<path style="fill:#2c2c2c; stroke:none;" d="M344 941L345 942L344 941M341 942L341 945L342 945L341 942z"/>
<path style="fill:#5b5b5b; stroke:none;" d="M342 942L343 943L342 942z"/>
<path style="fill:#2c2c2c; stroke:none;" d="M707 943L707 945L709 943L707 943M338 945L339 946L338 945z"/>
<path style="fill:#5b5b5b; stroke:none;" d="M339.667 945.333L340.333 945.667L339.667 945.333M338.333 946.667L338.667 947.333L338.333 946.667z"/>
<path style="fill:#2c2c2c; stroke:none;" d="M703 949L706 946L703 949M336.667 948.333L337.333 948.667L336.667 948.333z"/>
<path style="fill:#5b5b5b; stroke:none;" d="M702 948L697 952L697 953L702 948M335.333 949.667L335.667 950.333L335.333 949.667z"/>
<path style="fill:#2c2c2c; stroke:none;" d="M700 950L700 952L702 950L700 950M331 952L332 953L331 952z"/>
<path style="fill:#5b5b5b; stroke:none;" d="M332.667 952.333L333.333 952.667L332.667 952.333M331.333 953.667L331.667 954.333L331.333 953.667z"/>
<path style="fill:#2c2c2c; stroke:none;" d="M696 953L693 959L699 953L696 953M328 955L329 956L328 955z"/>
<path style="fill:#5b5b5b; stroke:none;" d="M329.667 955.333L330.333 955.667L329.667 955.333M695 955L696 956L695 955M328.333 956.667L328.667 957.333L328.333 956.667M693.667 956.333L694.333 956.667L693.667 956.333M692 957L688 963C690.382 961.837 693.375 959.653 692 957z"/>
<path style="fill:#2c2c2c; stroke:none;" d="M327 958L328 959L327 958M324 959L324 962L325 962L324 959z"/>
<path style="fill:#5b5b5b; stroke:none;" d="M325 959L326 960L325 959z"/>
<path style="fill:#2c2c2c; stroke:none;" d="M690 960L690 962L692 960L690 960M321 962L322 963L321 962z"/>
<path style="fill:#5b5b5b; stroke:none;" d="M322.667 962.333L323.333 962.667L322.667 962.333M321.333 963.667L321.667 964.333L321.333 963.667z"/>
<path style="fill:#2c2c2c; stroke:none;" d="M686 966L689 963L686 966M319.667 965.333L320.333 965.667L319.667 965.333z"/>
<path style="fill:#5b5b5b; stroke:none;" d="M685 965L680 969L680 970L685 965M318.333 966.667L318.667 967.333L318.333 966.667z"/>
<path style="fill:#2c2c2c; stroke:none;" d="M683 967L683 969L685 967L683 967M314 969L315 970L314 969z"/>
<path style="fill:#5b5b5b; stroke:none;" d="M315.667 969.333L316.333 969.667L315.667 969.333M314.333 970.667L314.667 971.333L314.333 970.667z"/>
<path style="fill:#2c2c2c; stroke:none;" d="M679 970L676 976L682 970L679 970M311 972L312 973L311 972z"/>
<path style="fill:#5b5b5b; stroke:none;" d="M312.667 972.333L313.333 972.667L312.667 972.333M678 972L679 973L678 972M311.333 973.667L311.667 974.333L311.333 973.667M676.667 973.333L677.333 973.667L676.667 973.333M675 974L671 980C673.382 978.837 676.375 976.652 675 974z"/>
<path style="fill:#2c2c2c; stroke:none;" d="M310 975L311 976L310 975M307 976L307 979L308 979L307 976z"/>
<path style="fill:#5b5b5b; stroke:none;" d="M308 976L309 977L308 976z"/>
<path style="fill:#2c2c2c; stroke:none;" d="M673 977L673 979L675 977L673 977M304 979L305 980L304 979z"/>
<path style="fill:#5b5b5b; stroke:none;" d="M305.667 979.333L306.333 979.667L305.667 979.333M304.333 980.667L304.667 981.333L304.333 980.667z"/>
<path style="fill:#2c2c2c; stroke:none;" d="M669 983L672 980L669 983M302.667 982.333L303.333 982.667L302.667 982.333z"/>
<path style="fill:#5b5b5b; stroke:none;" d="M668 982L663 986L663 987L668 982M301.333 983.667L301.667 984.333L301.333 983.667z"/>
<path style="fill:#2c2c2c; stroke:none;" d="M666 984L666 986L668 984L666 984M297 986L298 987L297 986z"/>
<path style="fill:#5b5b5b; stroke:none;" d="M298.667 986.333L299.333 986.667L298.667 986.333M297.333 987.667L297.667 988.333L297.333 987.667z"/>
<path style="fill:#2c2c2c; stroke:none;" d="M662 987L659 993L665 987L662 987M294 989L295 990L294 989z"/>
<path style="fill:#5b5b5b; stroke:none;" d="M295.667 989.333L296.333 989.667L295.667 989.333M661 989L662 990L661 989M294.333 990.667L294.667 991.333L294.333 990.667M659.667 990.333L660.333 990.667L659.667 990.333M658 991L654 997C656.382 995.837 659.375 993.652 658 991z"/>
<path style="fill:#2c2c2c; stroke:none;" d="M293 992L294 993L293 992M290 993L290 996L291 996L290 993z"/>
<path style="fill:#5b5b5b; stroke:none;" d="M291 993L292 994L291 993z"/>
<path style="fill:#2c2c2c; stroke:none;" d="M656 994L656 996L658 994L656 994M287 996L288 997L287 996z"/>
<path style="fill:#5b5b5b; stroke:none;" d="M288.667 996.333L289.333 996.667L288.667 996.333M287.333 997.667L287.667 998.333L287.333 997.667z"/>
<path style="fill:#2c2c2c; stroke:none;" d="M652 1000L655 997L652 1000M285.667 999.333L286.333 999.667L285.667 999.333z"/>
<path style="fill:#5b5b5b; stroke:none;" d="M651 999L646 1003L646 1004L651 999M284.333 1000.67L284.667 1001.33L284.333 1000.67z"/>
<path style="fill:#2c2c2c; stroke:none;" d="M649 1001L649 1003L651 1001L649 1001M280 1003L281 1004L280 1003z"/>
<path style="fill:#5b5b5b; stroke:none;" d="M281 1003L282 1004L281 1003M280.333 1004.67L280.667 1005.33L280.333 1004.67z"/>
<path style="fill:#2c2c2c; stroke:none;" d="M645 1004L642 1010L648 1004L645 1004M277 1006L278 1007L277 1006z"/>
<path style="fill:#5b5b5b; stroke:none;" d="M278.667 1006.33L279.333 1006.67L278.667 1006.33M644 1006L645 1007L644 1006M277.333 1007.67L277.667 1008.33L277.333 1007.67M642.667 1007.33L643.333 1007.67L642.667 1007.33M641 1008L637 1014C639.382 1012.84 642.375 1010.65 641 1008z"/>
<path style="fill:#2c2c2c; stroke:none;" d="M276 1009L277 1010L276 1009M273 1010L273 1013L274 1013L273 1010z"/>
<path style="fill:#5b5b5b; stroke:none;" d="M274 1010L275 1011L274 1010z"/>
<path style="fill:#2c2c2c; stroke:none;" d="M639 1011L639 1013L641 1011L639 1011M270 1013L271 1014L270 1013z"/>
<path style="fill:#5b5b5b; stroke:none;" d="M271.667 1013.33L272.333 1013.67L271.667 1013.33M270.333 1014.67L270.667 1015.33L270.333 1014.67z"/>
<path style="fill:#2c2c2c; stroke:none;" d="M635 1017L638 1014L635 1017M268.667 1016.33L269.333 1016.67L268.667 1016.33z"/>
<path style="fill:#5b5b5b; stroke:none;" d="M634 1016L629 1020L629 1021L634 1016M267.333 1017.67L267.667 1018.33L267.333 1017.67z"/>
<path style="fill:#2c2c2c; stroke:none;" d="M632 1018L632 1020L634 1018L632 1018M263 1020L264 1021L263 1020z"/>
<path style="fill:#5b5b5b; stroke:none;" d="M264 1020L265 1021L264 1020M263.333 1021.67L263.667 1022.33L263.333 1021.67z"/>
<path style="fill:#2c2c2c; stroke:none;" d="M628 1021L625 1027L631 1021L628 1021M260 1023L261 1024L260 1023z"/>
<path style="fill:#5b5b5b; stroke:none;" d="M261.667 1023.33L262.333 1023.67L261.667 1023.33M627 1023L628 1024L627 1023M260.333 1024.67L260.667 1025.33L260.333 1024.67M625.667 1024.33L626.333 1024.67L625.667 1024.33M624 1025L620 1031C622.382 1029.84 625.375 1027.65 624 1025z"/>
<path style="fill:#2c2c2c; stroke:none;" d="M258.667 1026.33L259.333 1026.67L258.667 1026.33z"/>
<path style="fill:#5b5b5b; stroke:none;" d="M257 1027L258 1028L257 1027M256 1028L257 1029L256 1028z"/>
<path style="fill:#2c2c2c; stroke:none;" d="M622 1028L622 1030L624 1028L622 1028M256 1029L257 1030L256 1029z"/>
<path style="fill:#5b5b5b; stroke:none;" d="M254.667 1030.33L255.333 1030.67L254.667 1030.33z"/>
<path style="fill:#2c2c2c; stroke:none;" d="M618 1034L621 1031L618 1034M252 1033L253 1034L252 1033z"/>
<path style="fill:#5b5b5b; stroke:none;" d="M617 1033L612 1037L612 1038L617 1033M252 1034L253 1035L252 1034z"/>
<path style="fill:#2c2c2c; stroke:none;" d="M615 1035L615 1037L617 1035L615 1035z"/>
<path style="fill:#5b5b5b; stroke:none;" d="M248 1037L246 1043L247 1043L250 1037L248 1037z"/>
<path style="fill:#2c2c2c; stroke:none;" d="M247 1038L248 1039L247 1038M611 1038L608 1044L614 1038L611 1038z"/>
<path style="fill:#5b5b5b; stroke:none;" d="M610 1040L611 1041L610 1040M608.667 1041.33L609.333 1041.67L608.667 1041.33M607 1042L603 1048C605.382 1046.84 608.375 1044.65 607 1042z"/>
<path style="fill:#2c2c2c; stroke:none;" d="M245 1043L246 1044L245 1043M243 1044L244 1045L243 1044z"/>
<path style="fill:#5b5b5b; stroke:none;" d="M243 1046L246 1044L243 1046z"/>
<path style="fill:#2c2c2c; stroke:none;" d="M605 1045L605 1047L607 1045L605 1045M601 1051L604 1048L601 1051M240 1051L243 1051L242 1049L240 1051z"/>
<path style="fill:#5b5b5b; stroke:none;" d="M600 1050L595 1054L595 1055L600 1050M240 1051L240 1052L243 1052L240 1051M239 1052L240 1053L239 1052z"/>
<path style="fill:#2c2c2c; stroke:none;" d="M598 1052L598 1054L600 1052L598 1052z"/>
<path style="fill:#5b5b5b; stroke:none;" d="M239 1055L236 1061C239.231 1059.93 240.241 1058.26 239 1055z"/>
<path style="fill:#2c2c2c; stroke:none;" d="M594 1055L591 1061L597 1055L594 1055M238 1056L236 1059L238 1056z"/>
<path style="fill:#5b5b5b; stroke:none;" d="M593 1057L594 1058L593 1057M591.667 1058.33L592.333 1058.67L591.667 1058.33M590 1059L586 1065C588.382 1063.84 591.375 1061.65 590 1059z"/>
<path style="fill:#2c2c2c; stroke:none;" d="M588 1062L588 1064L590 1062L588 1062M584 1068L587 1065L584 1068M235.333 1067.67L235.667 1068.33L235.333 1067.67z"/>
<path style="fill:#5b5b5b; stroke:none;" d="M583 1067L578 1071L578 1072L583 1067M235 1069L235 1073L236 1073L235 1069z"/>
<path style="fill:#2c2c2c; stroke:none;" d="M581 1069L581 1071L583 1069L581 1069M803 1074L811 1072C807.629 1070.64 805.475 1071.47 803 1074z"/>
<path style="fill:#5b5b5b; stroke:none;" d="M804 1074L804 1075C808.917 1074.99 813.952 1075.35 817 1071L804 1074z"/>
<path style="fill:#9a9a9a; stroke:none;" d="M794 1074L794 1078L787 1078L787 1079C793.499 1080.19 795.318 1077.29 801.089 1076.01C807.682 1074.55 816.218 1076 823 1076L928 1076L1258 1076L1697 1076L1838 1076C1861.2 1076 1887.18 1079.24 1910 1075C1911.87 1080.93 1916.88 1079.64 1922 1079C1923.88 1084.71 1934.12 1087.39 1939 1090.62C1949.42 1097.54 1958.18 1107.55 1964.23 1118.42C1966.82 1123.07 1969.15 1133.39 1974 1135L1975 1154L1976 1154L1975 1131C1971.27 1128.83 1971.88 1126 1972 1122L1969 1123L1965 1109L1944 1092L1944 1088L1939 1088L1939 1084C1935.42 1084.4 1933.81 1084.2 1932 1081L1926 1078L1914 1078L1914 1074L1898 1074.71L1884 1071L1528 1071L824 1071L809.996 1074.68L794 1074z"/>
<path style="fill:#5b5b5b; stroke:none;" d="M1890 1071C1893.33 1075.67 1899.75 1075 1905 1075L1890 1071z"/>
<path style="fill:#2c2c2c; stroke:none;" d="M1898 1071L1905 1074L1898 1071M577 1072L574 1078L580 1072L577 1072z"/>
<path style="fill:#5b5b5b; stroke:none;" d="M576 1074L577 1075L576 1074M791 1074L791 1078L794 1078L794 1074L791 1074M1914 1074L1917 1078L1914 1074z"/>
<path style="fill:#2c2c2c; stroke:none;" d="M1915.67 1074.33L1916.33 1074.67L1915.67 1074.33z"/>
<path style="fill:#5b5b5b; stroke:none;" d="M574.667 1075.33L575.333 1075.67L574.667 1075.33z"/>
<path style="fill:#2c2c2c; stroke:none;" d="M788 1078L791 1075L788 1078z"/>
<path style="fill:#ffffff; stroke:none;" d="M786 1078C784.376 1083.35 778.724 1083.85 774.245 1086.44C767.005 1090.62 759.53 1096.58 753.92 1102.8C745.251 1112.42 738.145 1125.94 734.674 1138.17C733.113 1143.67 734.156 1151.04 733 1157L729 1156C729 1180.64 725.229 1208.65 729.147 1232.95C729.766 1236.78 733.269 1239.1 734.177 1243C735.13 1247.1 733.898 1250.93 734.483 1254.91C735.724 1263.36 741.897 1274.34 746.84 1281.33C753.942 1291.39 761.494 1298.81 771.83 1305.57C777.062 1308.98 785.835 1310.76 789 1316C793.907 1315.09 799.997 1314.25 799 1321C867.281 1314.44 937.26 1318 1006 1318L1354 1318L1702 1318C1770.75 1318 1840.68 1314.48 1909 1321C1907.99 1314.15 1914.1 1315.38 1919 1316C1920.93 1312.46 1923.05 1311.89 1927 1312C1932.63 1305.71 1941.83 1302.13 1948.41 1296.63C1957.07 1289.4 1963.83 1278.11 1968.62 1268C1972.18 1260.51 1971.88 1253.82 1973.34 1246C1978.5 1218.32 1977.58 1186.39 1975.96 1158C1975.48 1149.67 1972.9 1143.69 1974 1135L1958.49 1108.29L1937 1088.69L1922 1079C1916.73 1079.4 1912.77 1080.27 1910 1075L1819 1076L1650 1076L1132 1076L886 1076L813 1076L786 1078z"/>
<path style="fill:#2c2c2c; stroke:none;" d="M1917 1075L1920 1078L1919 1075L1917 1075z"/>
<path style="fill:#5b5b5b; stroke:none;" d="M573 1076L569 1082C571.382 1080.84 574.375 1078.65 573 1076M781 1078L781 1081L782 1081L783 1078L781 1078z"/>
<path style="fill:#9a9a9a; stroke:none;" d="M776 1081C774.194 1084.25 772.617 1084.6 769 1084L770 1088L764 1088C762.147 1094.88 749.361 1105.77 743 1109L743 1117L739 1117L740 1122L736 1123L736 1132C730.643 1133.8 732.987 1140.31 733 1145C727.586 1146.9 727.52 1155.18 733 1157C734.553 1151 733.582 1144.87 734.87 1139.09C737.587 1126.89 745.557 1113.06 753.92 1103.61C759.575 1097.23 767.056 1091.44 774.245 1086.92C778.731 1084.09 785.027 1083.83 786 1078L776 1081z"/>
<path style="fill:#2c2c2c; stroke:none;" d="M1926 1078L1927 1079L1926 1078M571 1079L571 1081L573 1079L571 1079M780.333 1079.67L780.667 1080.33L780.333 1079.67z"/>
<path style="fill:#5b5b5b; stroke:none;" d="M1925 1079L1927 1081L1927 1079L1925 1079z"/>
<path style="fill:#2c2c2c; stroke:none;" d="M1927 1080L1928 1081L1927 1080z"/>
<path style="fill:#5b5b5b; stroke:none;" d="M774 1081L770 1084L770 1085C773.41 1084.74 774.901 1084.32 776 1081L774 1081M1932 1081L1937 1085L1937 1084L1932 1081z"/>
<path style="fill:#2c2c2c; stroke:none;" d="M567 1085L570 1082L567 1085M773 1083L774 1084L773 1083z"/>
<path style="fill:#5b5b5b; stroke:none;" d="M566 1084L561 1088L561 1089L566 1084z"/>
<path style="fill:#2c2c2c; stroke:none;" d="M767 1085L768 1086L767 1085z"/>
<path style="fill:#5b5b5b; stroke:none;" d="M768 1085L767 1086L767 1087L767 1088L770 1085L768 1085M1939 1085L1939 1088L1941 1088L1941 1085L1939 1085z"/>
<path style="fill:#2c2c2c; stroke:none;" d="M564 1086L564 1088L566 1086L564 1086z"/>
<path style="fill:#5b5b5b; stroke:none;" d="M763 1088L763 1091L765 1090L765 1089L763 1088z"/>
<path style="fill:#2c2c2c; stroke:none;" d="M560 1089L557 1095L563 1089L560 1089M1944 1090L1945 1091L1944 1090z"/>
<path style="fill:#5b5b5b; stroke:none;" d="M559 1091L560 1092L559 1091z"/>
<path style="fill:#2c2c2c; stroke:none;" d="M760 1091L761 1092L760 1091z"/>
<path style="fill:#5b5b5b; stroke:none;" d="M761.667 1091.33L762.333 1091.67L761.667 1091.33M1944 1091L1944 1092L1947 1095L1948 1095L1944 1091z"/>
<path style="fill:#2c2c2c; stroke:none;" d="M1947 1091L1948 1092L1947 1091z"/>
<path style="fill:#5b5b5b; stroke:none;" d="M557.667 1092.33L558.333 1092.67L557.667 1092.33M760.333 1092.67L760.667 1093.33L760.333 1092.67z"/>
<path style="fill:#2c2c2c; stroke:none;" d="M1948 1092L1951 1095L1948 1092z"/>
<path style="fill:#5b5b5b; stroke:none;" d="M556 1093L552 1099C554.382 1097.84 557.375 1095.65 556 1093z"/>
<path style="fill:#2c2c2c; stroke:none;" d="M759 1094L760 1095L759 1094M755 1095L753 1098C755.251 1097.53 756.118 1097.14 755 1095z"/>
<path style="fill:#5b5b5b; stroke:none;" d="M756 1095L756 1098L757 1098L758 1095L756 1095M1950 1095L1958 1103L1950 1095z"/>
<path style="fill:#2c2c2c; stroke:none;" d="M554 1096L554 1098L556 1096L554 1096z"/>
<path style="fill:#9a9a9a; stroke:none;" d="M235 1097L236 1119C239.963 1121.19 239.728 1123.82 239 1128C242.543 1128.49 242.774 1130.71 243 1134L246 1134L246 1139C250.898 1141.38 252.828 1144.62 253 1150C258.195 1151.34 269.284 1161.5 270 1167L274 1167L284 1181L294 1187L294 1191L298 1191L301 1194L301 1198L305 1198L311 1204L311 1208L318 1215L325 1215L329 1222L335 1222L335 1225L340 1225L339 1229L361 1232C362.734 1237.22 368.34 1235.82 373 1236L373 1235C366.017 1231.11 362.467 1228.98 354 1231L333.131 1219.55L314 1203.83L250.847 1138.2L237 1114C238.35 1108.33 239.228 1101.51 235 1097z"/>
<path style="fill:#5b5b5b; stroke:none;" d="M753 1098L752 1102L753 1102L756 1099L753 1098z"/>
<path style="fill:#2c2c2c; stroke:none;" d="M550 1102L553 1099L550 1102M1955 1099L1955 1101L1957 1101L1957 1099L1955 1099M750 1102L753 1100L750 1102z"/>
<path style="fill:#5b5b5b; stroke:none;" d="M549 1101L544 1105L544 1106L549 1101M750 1102L751 1103L750 1102z"/>
<path style="fill:#2c2c2c; stroke:none;" d="M547 1103L547 1105L549 1103L547 1103M749.333 1103.67L749.667 1104.33L749.333 1103.67M1958 1103L1958 1105L1960 1105L1958 1103z"/>
<path style="fill:#5b5b5b; stroke:none;" d="M746 1105L746 1106L749 1106L746 1105M1958 1105L1958 1106L1961 1107L1958 1105z"/>
<path style="fill:#2c2c2c; stroke:none;" d="M543 1106L540 1112L546 1106L543 1106z"/>
<path style="fill:#5b5b5b; stroke:none;" d="M235 1107L235 1111L236 1111L235 1107z"/>
<path style="fill:#2c2c2c; stroke:none;" d="M1961 1107L1962 1108L1961 1107z"/>
<path style="fill:#5b5b5b; stroke:none;" d="M542 1108L543 1109L542 1108M744.667 1108.33L745.333 1108.67L744.667 1108.33M1961.67 1108.33L1962.33 1108.67L1961.67 1108.33z"/>
<path style="fill:#2c2c2c; stroke:none;" d="M1963 1108L1964 1109L1963 1108z"/>
<path style="fill:#5b5b5b; stroke:none;" d="M540.667 1109.33L541.333 1109.67L540.667 1109.33M539 1110L535 1116C537.382 1114.84 540.375 1112.65 539 1110z"/>
<path style="fill:#2c2c2c; stroke:none;" d="M235.333 1111.67L235.667 1112.33L235.333 1111.67M1965 1112L1966 1113L1965 1112M537 1113L537 1115L539 1113L537 1113M742 1113L741 1115L743 1115L742 1113z"/>
<path style="fill:#5b5b5b; stroke:none;" d="M1965 1113L1968 1117L1965 1113z"/>
<path style="fill:#2c2c2c; stroke:none;" d="M1967 1114L1968 1115L1967 1114z"/>
<path style="fill:#5b5b5b; stroke:none;" d="M739 1116L739 1117L743 1115L739 1116z"/>
<path style="fill:#2c2c2c; stroke:none;" d="M533 1119L536 1116L533 1119z"/>
<path style="fill:#5b5b5b; stroke:none;" d="M532 1118L527 1122L527 1123L532 1118M236 1119L239 1121L239 1126C240.417 1122.5 239.596 1120.19 236 1119z"/>
<path style="fill:#2c2c2c; stroke:none;" d="M738 1119L736 1122C738.251 1121.53 739.118 1121.14 738 1119z"/>
<path style="fill:#5b5b5b; stroke:none;" d="M1968 1119L1971 1123L1968 1119z"/>
<path style="fill:#2c2c2c; stroke:none;" d="M1969 1119L1970 1120L1969 1119M530 1120L530 1122L532 1120L530 1120z"/>
<path style="fill:#5b5b5b; stroke:none;" d="M739.333 1120.67L739.667 1121.33L739.333 1120.67z"/>
<path style="fill:#2c2c2c; stroke:none;" d="M1970 1120L1971 1121L1970 1120M236 1121L237 1122L236 1121M238 1121L237 1123L239 1123L238 1121z"/>
<path style="fill:#5b5b5b; stroke:none;" d="M736 1122L736 1123L739 1123L736 1122z"/>
<path style="fill:#2c2c2c; stroke:none;" d="M526 1123L523 1129L529 1123L526 1123z"/>
<path style="fill:#5b5b5b; stroke:none;" d="M525 1125L526 1126L525 1125M523.667 1126.33L524.333 1126.67L523.667 1126.33z"/>
<path style="fill:#2c2c2c; stroke:none;" d="M735 1126L733 1130L735 1126M1972 1126L1975 1130L1972 1126z"/>
<path style="fill:#5b5b5b; stroke:none;" d="M240 1127L243 1130L240 1127M522 1127L518 1133C520.382 1131.84 523.375 1129.65 522 1127M1971 1127L1975 1131L1975 1130L1971 1127z"/>
<path style="fill:#2c2c2c; stroke:none;" d="M240 1129L241 1130L240 1129z"/>
<path style="fill:#5b5b5b; stroke:none;" d="M734 1129L733 1130L733 1131L733 1132L736 1129L734 1129z"/>
<path style="fill:#2c2c2c; stroke:none;" d="M520 1130L520 1132L522 1130L520 1130M516 1136L519 1133L516 1136z"/>
<path style="fill:#5b5b5b; stroke:none;" d="M243 1134L246 1137L243 1134M515 1135L510 1139L510 1140L515 1135M732 1136L729 1147L730 1147L733 1145L732 1136z"/>
<path style="fill:#2c2c2c; stroke:none;" d="M513 1137L513 1139L515 1137L513 1137M1975 1137L1975 1140L1976 1140L1975 1137z"/>
<path style="fill:#5b5b5b; stroke:none;" d="M246 1139L246 1140L249 1140L246 1139z"/>
<path style="fill:#2c2c2c; stroke:none;" d="M731 1139L730 1141L732 1141L731 1139M247 1140L250 1143L247 1140M509 1140L506 1146L512 1140L509 1140z"/>
<path style="fill:#5b5b5b; stroke:none;" d="M1975 1140L1975 1143L1976 1143L1975 1140z"/>
<path style="fill:#2c2c2c; stroke:none;" d="M729 1141L730 1142L729 1141z"/>
<path style="fill:#5b5b5b; stroke:none;" d="M250 1142L253 1147L250 1142M508 1142L509 1143L508 1142M506.667 1143.33L507.333 1143.67L506.667 1143.33M505 1144L501 1150C503.382 1148.84 506.375 1146.65 505 1144z"/>
<path style="fill:#2c2c2c; stroke:none;" d="M251 1145L252 1146L251 1145M503 1147L503 1149L505 1147L503 1147z"/>
<path style="fill:#5b5b5b; stroke:none;" d="M254 1149L255 1150L254 1149z"/>
<path style="fill:#2c2c2c; stroke:none;" d="M499 1153L502 1150L499 1153z"/>
<path style="fill:#5b5b5b; stroke:none;" d="M256 1151L257 1152L256 1151M498 1152L493 1156L493 1157L498 1152M257 1153L257 1154L260 1154L257 1153z"/>
<path style="fill:#2c2c2c; stroke:none;" d="M496 1154L496 1156L498 1154L496 1154z"/>
<path style="fill:#5b5b5b; stroke:none;" d="M260 1155L261 1156L260 1155z"/>
<path style="fill:#2c2c2c; stroke:none;" d="M260 1156L261 1157L260 1156z"/>
<path style="fill:#5b5b5b; stroke:none;" d="M263.333 1157.67L263.667 1158.33L263.333 1157.67z"/>
<path style="fill:#2c2c2c; stroke:none;" d="M492 1157L489 1163L495 1157L492 1157M263 1159L264 1160L263 1159z"/>
<path style="fill:#5b5b5b; stroke:none;" d="M491 1159L492 1160L491 1159M265.667 1160.33L266.333 1160.67L265.667 1160.33M489.667 1160.33L490.333 1160.67L489.667 1160.33M488 1161L484 1167C486.382 1165.84 489.375 1163.65 488 1161z"/>
<path style="fill:#2c2c2c; stroke:none;" d="M267 1163L268 1164L267 1163z"/>
<path style="fill:#5b5b5b; stroke:none;" d="M268.667 1163.33L269.333 1163.67L268.667 1163.33z"/>
<path style="fill:#2c2c2c; stroke:none;" d="M486 1164L486 1166L488 1164L486 1164z"/>
<path style="fill:#5b5b5b; stroke:none;" d="M270 1165L271 1166L270 1165z"/>
<path style="fill:#2c2c2c; stroke:none;" d="M272 1167L273 1168L272 1167z"/>
<path style="fill:#5b5b5b; stroke:none;" d="M273.333 1167.67L273.667 1168.33L273.333 1167.67z"/>
<path style="fill:#2c2c2c; stroke:none;" d="M482 1170L485 1167L482 1170z"/>
<path style="fill:#5b5b5b; stroke:none;" d="M481 1169L476 1173L476 1174L481 1169z"/>
<path style="fill:#2c2c2c; stroke:none;" d="M274 1170L275 1171L274 1170z"/>
<path style="fill:#5b5b5b; stroke:none;" d="M275.667 1170.33L276.333 1170.67L275.667 1170.33z"/>
<path style="fill:#2c2c2c; stroke:none;" d="M479 1171L479 1173L481 1171L479 1171M277 1173L278 1174L277 1173z"/>
<path style="fill:#5b5b5b; stroke:none;" d="M280 1174L282 1177L280 1174z"/>
<path style="fill:#2c2c2c; stroke:none;" d="M475 1174L472 1180L478 1174L475 1174M280 1176L281 1177L280 1176z"/>
<path style="fill:#5b5b5b; stroke:none;" d="M474 1176L475 1177L474 1176M282.667 1177.33L283.333 1177.67L282.667 1177.33M472.667 1177.33L473.333 1177.67L472.667 1177.33M471 1178L467 1184C469.382 1182.84 472.375 1180.65 471 1178z"/>
<path style="fill:#2c2c2c; stroke:none;" d="M469 1181L469 1183L471 1181L469 1181z"/>
<path style="fill:#5b5b5b; stroke:none;" d="M287 1183L288 1184L287 1183z"/>
<path style="fill:#2c2c2c; stroke:none;" d="M289 1184L290 1185L289 1184z"/>
<path style="fill:#5b5b5b; stroke:none;" d="M290 1184L290 1187L291 1187L290 1184z"/>
<path style="fill:#2c2c2c; stroke:none;" d="M465 1187L468 1184L465 1187z"/>
<path style="fill:#5b5b5b; stroke:none;" d="M464 1186L459 1190L459 1191L464 1186z"/>
<path style="fill:#2c2c2c; stroke:none;" d="M291 1187L292 1188L291 1187z"/>
<path style="fill:#5b5b5b; stroke:none;" d="M292.667 1187.33L293.333 1187.67L292.667 1187.33z"/>
<path style="fill:#2c2c2c; stroke:none;" d="M462 1188L462 1190L464 1188L462 1188z"/>
<path style="fill:#5b5b5b; stroke:none;" d="M297.333 1191.67L297.667 1192.33L297.333 1191.67z"/>
<path style="fill:#2c2c2c; stroke:none;" d="M458 1191L455 1197L461 1191L458 1191M297 1193L298 1194L297 1193z"/>
<path style="fill:#5b5b5b; stroke:none;" d="M457 1193L458 1194L457 1193M298 1194L298 1195L301 1195L298 1194M455.667 1194.33L456.333 1194.67L455.667 1194.33M454 1195L450 1201C452.382 1199.84 455.375 1197.65 454 1195M304 1198L305 1199L304 1198z"/>
<path style="fill:#2c2c2c; stroke:none;" d="M452 1198L452 1200L454 1198L452 1198z"/>
<path style="fill:#5b5b5b; stroke:none;" d="M304 1200L305 1201L304 1200z"/>
<path style="fill:#2c2c2c; stroke:none;" d="M306 1201L307 1202L306 1201z"/>
<path style="fill:#5b5b5b; stroke:none;" d="M307 1201L307 1204L308 1204L307 1201z"/>
<path style="fill:#2c2c2c; stroke:none;" d="M448 1204L451 1201L448 1204z"/>
<path style="fill:#5b5b5b; stroke:none;" d="M447 1203L443 1208L447 1203z"/>
<path style="fill:#2c2c2c; stroke:none;" d="M308 1204L309 1205L308 1204z"/>
<path style="fill:#5b5b5b; stroke:none;" d="M309.667 1204.33L310.333 1204.67L309.667 1204.33z"/>
<path style="fill:#2c2c2c; stroke:none;" d="M445 1205L445 1207L447 1205L445 1205z"/>
<path style="fill:#5b5b5b; stroke:none;" d="M314 1208L316 1211L314 1208M441 1208L442 1209L441 1208z"/>
<path style="fill:#2c2c2c; stroke:none;" d="M441 1210L444 1208L441 1210z"/>
<path style="fill:#5b5b5b; stroke:none;" d="M438 1211L438 1212L442 1211L438 1211M316 1211L317 1212L316 1211z"/>
<path style="fill:#2c2c2c; stroke:none;" d="M440 1211L441 1212L440 1211z"/>
<path style="fill:#5b5b5b; stroke:none;" d="M318 1213L319 1214L318 1213M437 1213L438 1214L437 1213M319 1214L320 1215L319 1214z"/>
<path style="fill:#2c2c2c; stroke:none;" d="M437 1214L438 1215L437 1214z"/>
<path style="fill:#5b5b5b; stroke:none;" d="M321 1215L325 1218L321 1215M434 1215L435 1216L434 1215z"/>
<path style="fill:#2c2c2c; stroke:none;" d="M434 1216L435 1217L434 1216z"/>
<path style="fill:#5b5b5b; stroke:none;" d="M325 1218L325 1219L328 1222L329 1222L325 1218z"/>
<path style="fill:#2c2c2c; stroke:none;" d="M325 1219L328 1221L325 1219z"/>
<path style="fill:#5b5b5b; stroke:none;" d="M429 1219L430 1220L429 1219M428 1220L422 1225L424 1222L428 1220M430 1220L431 1221L430 1220z"/>
<path style="fill:#2c2c2c; stroke:none;" d="M331.333 1222.67L331.667 1223.33L331.333 1222.67z"/>
<path style="fill:#5b5b5b; stroke:none;" d="M332 1222L332 1225L335 1225L335 1222L332 1222z"/>
<path style="fill:#2c2c2c; stroke:none;" d="M424 1222L424 1224L426 1222L424 1222z"/>
<path style="fill:#5b5b5b; stroke:none;" d="M338 1225L339 1228L340 1228L340 1225L338 1225M416 1225L416 1229L417 1229L418 1225L416 1225z"/>
<path style="fill:#2c2c2c; stroke:none;" d="M418 1225L418 1227L420 1225L418 1225M338.333 1226.67L338.667 1227.33L338.333 1226.67M417 1227L418 1228L417 1227z"/>
<path style="fill:#5b5b5b; stroke:none;" d="M342 1228L342 1229L350 1232C347.915 1228.6 345.903 1228.13 342 1228M407 1232L412 1229L407 1232z"/>
<path style="fill:#2c2c2c; stroke:none;" d="M345 1229L347 1232L345 1229M410 1232L413 1229L410 1232M355 1232L356 1235L357 1235L357 1232L355 1232z"/>
<path style="fill:#5b5b5b; stroke:none;" d="M357 1232L357 1235L361 1235L361 1232L357 1232M396 1235L400 1235L400 1232L396 1235z"/>
<path style="fill:#2c2c2c; stroke:none;" d="M400 1232L399 1234L401 1234L400 1232z"/>
<path style="fill:#ffffff; stroke:none;" d="M361 1235L362 1236L361 1235M368 1235L369 1236L368 1235z"/>
<path style="fill:#9a9a9a; stroke:none;" d="M377 1235L377 1236L382 1236L377 1235M384 1235L384 1236L388 1236L384 1235M729 1236L729 1248C733.448 1250.45 735.981 1265.57 736 1271L739 1277L743 1283L746 1283C746.542 1290.05 758.269 1302.15 765 1304L763 1305L763 1306L771 1310C774.202 1310.24 776.488 1310.54 777 1314L784 1313L785 1317L796 1317L797 1321C805.285 1316.29 793.009 1315.05 789 1316C786.395 1309.37 767.59 1302.09 761.286 1297.36C748.395 1287.7 740.282 1270.48 735.139 1255.83C732.68 1248.83 737.809 1239.89 729 1236M1975 1240C1972.63 1245.62 1974.19 1251.25 1972.46 1256.83C1968.66 1269.03 1961.83 1279.95 1954.03 1290C1947.05 1298.99 1932.57 1302.87 1927 1312C1922.92 1311.4 1920.34 1311.87 1919 1316C1915.15 1315.29 1902.57 1316.2 1911 1321C1913.86 1316.34 1924.55 1314.17 1930 1314L1930 1310L1937 1310L1944 1303L1963.53 1285.61L1968 1278L1972 1271C1971.82 1267.24 1971.57 1264.99 1975 1263L1975 1240z"/>
<path style="fill:#5b5b5b; stroke:none;" d="M729 1248L732 1257C733.625 1253.12 733.245 1249.41 729 1248M1975 1250L1975 1254L1976 1254L1975 1250z"/>
<path style="fill:#2c2c2c; stroke:none;" d="M729 1252L732 1255L729 1252M1975.33 1254.67L1975.67 1255.33L1975.33 1254.67z"/>
<path style="fill:#5b5b5b; stroke:none;" d="M733 1261L736 1265L733 1261M1971 1267L1972 1267L1975 1263L1971 1267z"/>
<path style="fill:#2c2c2c; stroke:none;" d="M733 1264L736 1266L733 1264M1972 1268L1975 1265L1972 1268z"/>
<path style="fill:#5b5b5b; stroke:none;" d="M736 1271L736 1272L739 1275L740 1275L736 1271M1968 1273L1971 1271L1968 1273z"/>
<path style="fill:#2c2c2c; stroke:none;" d="M1971 1271L1972 1272L1971 1271M736.667 1272.33L737.333 1272.67L736.667 1272.33M1968 1275L1971 1273L1968 1275z"/>
<path style="fill:#5b5b5b; stroke:none;" d="M739 1277L739 1278L743 1279L743 1278L739 1277M1965 1278L1965 1279L1968 1279L1965 1278z"/>
<path style="fill:#2c2c2c; stroke:none;" d="M741 1279L743 1281L743 1279L741 1279M1965 1281L1968 1280L1965 1281z"/>
<path style="fill:#5b5b5b; stroke:none;" d="M1964 1280L1965 1281L1964 1280M743 1283L746 1286L743 1283M1963 1283L1964 1284L1963 1283M1964 1284L1965 1285L1964 1284z"/>
<path style="fill:#9a9a9a; stroke:none;" d="M743 1285L744 1286L743 1285z"/>
<path style="fill:#5b5b5b; stroke:none;" d="M746 1288L747 1289L746 1288M747 1289L747 1290L750 1290L747 1289M1958 1289L1958 1290L1961 1290L1958 1289z"/>
<path style="fill:#2c2c2c; stroke:none;" d="M749 1290L750 1291L749 1290z"/>
<path style="fill:#5b5b5b; stroke:none;" d="M750.667 1292.33L751.333 1292.67L750.667 1292.33M1955 1292L1955 1293L1958 1293L1955 1292M1954.33 1293.67L1954.67 1294.33L1954.33 1293.67M753 1295L753 1296L757 1300L758 1300L753 1295z"/>
<path style="fill:#2c2c2c; stroke:none;" d="M1954 1295L1955 1296L1954 1295M753.667 1296.33L754.333 1296.67L753.667 1296.33z"/>
<path style="fill:#5b5b5b; stroke:none;" d="M1951 1296L1949 1300L1953 1297L1951 1296z"/>
<path style="fill:#2c2c2c; stroke:none;" d="M1953 1296L1954 1297L1953 1296M1951.67 1297.33L1952.33 1297.67L1951.67 1297.33M756 1298L757 1299L756 1298z"/>
<path style="fill:#5b5b5b; stroke:none;" d="M1947.33 1300.67L1947.67 1301.33L1947.33 1300.67M760 1302L761 1303L760 1302z"/>
<path style="fill:#2c2c2c; stroke:none;" d="M1947 1302L1948 1303L1947 1302z"/>
<path style="fill:#5b5b5b; stroke:none;" d="M763 1303L763 1305L765 1305L763 1303M1944 1303L1945 1304L1944 1303M1943 1305L1944 1306L1943 1305M766 1306L766 1307L770 1310C770.688 1306.95 768.758 1306.45 766 1306M1937 1310L1938 1310L1941 1307L1937 1310M1942 1306L1943 1307L1942 1306z"/>
<path style="fill:#2c2c2c; stroke:none;" d="M767 1307L770 1310L767 1307M1940 1307L1941 1308L1940 1307M1938 1308L1938 1310L1940 1308L1938 1308M774 1310L776 1313L774 1310z"/>
<path style="fill:#5b5b5b; stroke:none;" d="M775 1310L778 1313L775 1310M1930 1313L1933 1310L1930 1313z"/>
<path style="fill:#2c2c2c; stroke:none;" d="M1933.33 1310.67L1933.67 1311.33L1933.33 1310.67M1932 1312L1933 1313L1932 1312z"/>
<path style="fill:#5b5b5b; stroke:none;" d="M781 1314L785 1317L784 1313L781 1314z"/>
<path style="fill:#2c2c2c; stroke:none;" d="M1930 1313L1931 1314L1930 1313M780 1314L781 1315L780 1314z"/>
<path style="fill:#5b5b5b; stroke:none;" d="M1922 1317L1927 1314L1922 1317z"/>
<path style="fill:#2c2c2c; stroke:none;" d="M781 1315L782 1316L781 1315M1926 1315L1927 1316L1926 1315M782 1316L783 1317L782 1316M791 1317L794 1320L791 1317z"/>
<path style="fill:#5b5b5b; stroke:none;" d="M794 1317L794 1320L796 1320L796 1317L794 1317M1911 1320L1915 1317L1911 1320z"/>
<path style="fill:#2c2c2c; stroke:none;" d="M1914 1320L1917 1317L1914 1320z"/>
<path style="fill:#9a9a9a; stroke:none;" d="M808 1319L808 1320L1899 1320L1869 1318L1806 1318L1585 1318L1083 1318L808 1319M800.667 1320.33L801.333 1320.67L800.667 1320.33M804.667 1320.33L805.333 1320.67L804.667 1320.33z"/>
<path style="fill:#5b5b5b; stroke:none;" d="M806.667 1320.33L807.333 1320.67L806.667 1320.33z"/>
<path style="fill:#2c2c2c; stroke:none;" d="M808 1320L808 1321C829.799 1325.66 852.572 1324 875 1324L979 1324L1315 1324L1704 1324L1826 1324C1850.61 1324 1876.07 1326.11 1900 1321L1900 1320L1882 1322.96L1781 1323L1578 1323L1104 1323L893 1323L838 1323L818 1323L808 1320z"/>
<path style="fill:#5b5b5b; stroke:none;" d="M814 1320L814 1321L818 1323C823.825 1320.51 836.329 1323 843 1323L906 1323L1125 1323L1610 1323C1704.83 1323 1800.54 1325.84 1895 1321L1867 1320L1803 1320L1581 1320L814 1320M1900.67 1320.33L1901.33 1320.67L1900.67 1320.33z"/>
<path style="fill:#9a9a9a; stroke:none;" d="M1902.67 1320.33L1903.33 1320.67L1902.67 1320.33M1906.67 1320.33L1907.33 1320.67L1906.67 1320.33z"/>
<path style="fill:#5b5b5b; stroke:none;" d="M1890 1322L1891 1323L1890 1322z"/>
<path style="fill:#ffffff; stroke:none;" d="M445 1538.42C418.915 1541.85 393.044 1541.7 367 1547.21C304.217 1560.5 243.677 1591.11 196 1634.17C2.4093 1809.03 14.5543 2169.21 234 2318.34C259.276 2335.52 286.306 2350.07 315 2360.68C350.99 2373.99 389.626 2382.28 428 2383.96C480.844 2386.27 535.445 2379.96 586 2363.48C650.588 2342.43 727.196 2304.39 732.089 2228C732.838 2216.3 731.742 2204.18 727.921 2193C723.859 2181.11 718.241 2169.19 710.842 2159C704.928 2150.85 698.051 2143 690 2136.9C641.446 2100.12 594.589 2132.43 545 2146.57C473.526 2166.95 391.367 2166.89 340.25 2105C330.602 2093.32 322.472 2079.9 316.424 2066C272.326 1964.64 293.529 1798.26 421 1769.79C437.919 1766.01 455.605 1763.28 473 1764.04C495.031 1765 515.878 1767.6 537 1774.34C587.303 1790.42 645.692 1825.27 694 1782.82C748.951 1734.53 743.262 1647.23 689 1601.44C641.201 1561.11 575.624 1547.7 515 1541.83C492.62 1539.66 467.394 1535.48 445 1538.42M1021 1627C981.836 1532.96 835.188 1526.67 796.45 1624C785.642 1651.15 787 1679.36 787 1708L787 1821L787 2126L787 2218C787 2240.13 785.909 2262.37 791.478 2284C808.421 2349.81 881.321 2386.47 945 2363.56C955.29 2359.86 965.143 2355.2 974 2348.71C1019.89 2315.08 1022 2263.59 1022 2212L1022 1981C1022 1942.95 1019.49 1903.95 1022.09 1866C1026.66 1799.21 1069.55 1735.24 1142 1737.01C1154 1737.31 1166.66 1739.59 1178 1743.54C1233.08 1762.76 1254.98 1829.96 1255 1883L1255 2135C1255 2176.35 1252.26 2218.75 1255.09 2260C1260.73 2342.38 1347.7 2393.64 1423 2359.69C1457.68 2344.06 1481.59 2309.08 1487.56 2272C1490.2 2255.6 1489 2238.56 1489 2222L1489 1897C1489 1839.25 1504.75 1762.1 1569 1742.72C1579.57 1739.53 1590.95 1737.29 1602 1737.01C1674.99 1735.23 1713.95 1797.23 1721.71 1863C1725.62 1896.07 1722 1931.69 1722 1965L1722 2168C1722 2202.71 1718.44 2239.75 1724.61 2274C1730.55 2306.9 1750.01 2337.3 1779 2354.55C1821.5 2379.83 1883.98 2373.81 1920 2339.91C1956.93 2305.15 1957 2258.79 1957 2212L1957 2018L1957 1857C1957 1797.7 1956.75 1740.26 1932.14 1685C1888.48 1586.98 1785.7 1543.41 1684 1538.96C1654.15 1537.65 1624 1539.16 1595 1547.43C1535.47 1564.4 1489.44 1599.97 1439 1634C1434.01 1624.36 1424.64 1616.55 1417 1609C1390.07 1582.39 1356.03 1565.13 1320 1554.58C1236.09 1530 1138.02 1530.53 1064 1583.43C1046.69 1595.8 1034.61 1611.04 1021 1627M2206 2123.43C2184.87 2126.3 2166.01 2132.91 2148 2144.44C2134.34 2153.18 2122.47 2164.98 2112.88 2178C2103.57 2190.65 2096.63 2204.87 2092.42 2220C2067.76 2308.62 2146.43 2394.43 2236 2383.71C2254.04 2381.56 2270.55 2374.72 2286 2365.4C2326.8 2340.79 2352.05 2295.84 2349.96 2248C2346.85 2176.98 2278.23 2113.59 2206 2123.43z"/>
</svg>
